<svg width="40" height="40" viewBox="0 0 40 40" fill="none" xmlns="http://www.w3.org/2000/svg">
<g clip-path="url(#clip0_223_134)">
<path d="M31.0583 14.0667C31.0583 13.9833 31.0417 13.9 31.0083 13.825C30.975 13.75 30.9333 13.6833 30.875 13.625L27.875 10.625C27.6333 10.3833 27.2333 10.3833 26.9917 10.625C26.75 10.8667 26.75 11.2667 26.9917 11.5083L28.925 13.4417H12.175C10.325 13.4417 8.81665 15.125 8.81665 17.1917V20.0667C8.81665 20.4083 9.09998 20.6917 9.44165 20.6917C9.78332 20.6917 10.0667 20.4083 10.0667 20.0667V17.1917C10.0667 15.8167 11.0167 14.6917 12.175 14.6917H28.9333L27 16.625C26.7583 16.8667 26.7583 17.2667 27 17.5083C27.125 17.6333 27.2833 17.6917 27.4417 17.6917C27.6 17.6917 27.7583 17.6333 27.8833 17.5083L30.8833 14.5083C30.9417 14.45 30.9833 14.3833 31.0167 14.3083C31.05 14.2333 31.0667 14.15 31.0667 14.0667H31.0583Z" fill="#DE1355"/>
<path d="M30.0583 19.8083C29.7167 19.8083 29.4333 20.0917 29.4333 20.4333V23.3083C29.4333 24.6833 28.4833 25.8083 27.325 25.8083H10.575L12.5083 23.875C12.75 23.6333 12.75 23.2333 12.5083 22.9917C12.2667 22.75 11.8667 22.75 11.625 22.9917L8.62498 25.9917C8.56665 26.05 8.52498 26.1167 8.49165 26.1917C8.45832 26.2667 8.44165 26.35 8.44165 26.4333C8.44165 26.5167 8.45832 26.6 8.49165 26.675C8.52498 26.75 8.56665 26.8167 8.62498 26.875L11.625 29.875C11.75 30 11.9083 30.0583 12.0667 30.0583C12.225 30.0583 12.3833 30 12.5083 29.875C12.75 29.6333 12.75 29.2334 12.5083 28.9917L10.575 27.0584H27.3333C29.1833 27.0584 30.6917 25.375 30.6917 23.3083V20.4333C30.6917 20.0917 30.4083 19.8083 30.0667 19.8083H30.0583Z" fill="#DE1355"/>
</g>
<defs>
<clipPath id="clip0_223_134">
<rect width="40" height="40" fill="white"/>
</clipPath>
</defs>
</svg>
