<svg width="40" height="40" viewBox="0 0 40 40" fill="none" xmlns="http://www.w3.org/2000/svg">
<g clip-path="url(#clip0_223_34)">
<path d="M32.5167 22.4417L17.5833 7.51667C17.3417 7.275 16.9417 7.275 16.7 7.51667L12.5833 11.6333L8.45832 7.50834C8.21665 7.26667 7.81665 7.26667 7.57499 7.50834C7.33332 7.75 7.33332 8.15 7.57499 8.39167L11.7 12.5167L7.94999 16.2583C7.83332 16.375 7.76665 16.5333 7.76665 16.7C7.76665 16.8667 7.83332 17.025 7.94999 17.1417L22.8833 32.075C23.0083 32.2 23.1667 32.2583 23.325 32.2583C23.4833 32.2583 23.6417 32.2 23.7667 32.075L32.5167 23.325C32.6333 23.2083 32.7 23.05 32.7 22.8833C32.7 22.7167 32.6333 22.5583 32.5167 22.4417ZM23.325 30.75L9.27499 16.7083L12.575 13.4083L13.6333 14.4667C13.475 14.7667 13.375 15.0917 13.375 15.45C13.375 16.625 14.325 17.575 15.5 17.575C16.675 17.575 17.625 16.625 17.625 15.45C17.625 14.275 16.675 13.325 15.5 13.325C15.1417 13.325 14.8083 13.425 14.5167 13.5833L13.4583 12.525L17.1333 8.85L31.1833 22.9L23.3167 30.7667L23.325 30.75Z" fill="#a5a5a5"/>
</g>
<defs>
<clipPath id="clip0_223_34">
<rect width="40" height="40" fill="white"/>
</clipPath>
</defs>
</svg>
