<svg width="40" height="40" viewBox="0 0 40 40" fill="none" xmlns="http://www.w3.org/2000/svg">
<g clip-path="url(#clip0_223_16)">
<path d="M20 8.08447C16.8398 8.08447 13.8091 9.33989 11.5745 11.5745C9.33987 13.8091 8.08447 16.8398 8.08447 20C8.08447 23.1602 9.33987 26.191 11.5745 28.4256C13.8091 30.6602 16.8398 31.9155 20 31.9155C23.1602 31.9155 26.191 30.6602 28.4256 28.4256C30.6602 26.191 31.9155 23.1602 31.9155 20C31.9155 16.8398 30.6602 13.8091 28.4256 11.5745C26.191 9.33989 23.1602 8.08447 20 8.08447ZM17.4084 9.35051C16.359 10.5659 15.5955 12.0012 15.1742 13.5507C14.1441 13.2378 13.1465 12.8263 12.1953 12.3219C13.6243 10.8678 15.429 9.83908 17.4084 9.35051ZM11.5325 13.0741C12.601 13.6662 13.7294 14.1431 14.8987 14.4966C14.4885 16.149 14.2711 17.8433 14.2508 19.5457H9.03771C9.14529 17.1643 10.0294 14.8836 11.5549 13.0518L11.5325 13.0741ZM11.5549 26.9557C10.0472 25.1223 9.17681 22.8482 9.07496 20.4766H14.288C14.3079 22.1816 14.5253 23.8785 14.9359 25.5333C13.7615 25.8858 12.6281 26.3626 11.5549 26.9557ZM12.2102 27.7004C13.1608 27.1948 14.1585 26.7832 15.1891 26.4716C15.6087 28.0241 16.3723 29.4622 17.4233 30.6793C15.4341 30.1951 13.6204 29.1631 12.1879 27.7004H12.2102ZM19.5457 30.9251C18.2499 30.5825 16.9392 28.8622 16.1051 26.2185C17.233 25.9466 18.386 25.7919 19.5457 25.7567V30.9251ZM19.5457 24.8035C18.2904 24.838 17.0423 25.0052 15.8221 25.3025C15.4352 23.7298 15.2278 22.1184 15.204 20.499H19.5234L19.5457 24.8035ZM19.5457 19.5457H15.2263C15.2507 17.9264 15.4581 16.315 15.8445 14.7423C17.0639 15.0432 18.3125 15.2105 19.5681 15.2413L19.5457 19.5457ZM19.5457 14.288C18.386 14.2528 17.233 14.0981 16.1051 13.8263C16.9392 11.1825 18.2574 9.46222 19.5457 9.1271V14.288ZM28.4824 13.0741C29.9922 14.904 30.8653 17.1757 30.9698 19.5457H25.7567C25.729 17.8463 25.5117 16.1553 25.1088 14.504C26.275 14.1358 27.4004 13.6492 28.4675 13.0518L28.4824 13.0741ZM27.827 12.3294C26.8776 12.8393 25.8797 13.2535 24.8482 13.5657C24.4282 12.0112 23.6647 10.5707 22.614 9.35051C24.5904 9.83573 26.3912 10.8651 27.8121 12.3219L27.827 12.3294ZM20.4915 9.1271C21.7799 9.47712 23.0832 11.19 23.9098 13.8188C22.79 14.0957 21.6444 14.2554 20.4915 14.2955V9.1271ZM20.4915 15.2264C21.7317 15.1928 22.9649 15.028 24.1705 14.7349C24.5579 16.3047 24.7628 17.914 24.7811 19.5309H20.4915V15.2264ZM20.4915 20.4841H24.7811C24.7633 22.101 24.5584 23.7103 24.1705 25.2801C22.9649 24.9869 21.7317 24.8222 20.4915 24.7886V20.4841ZM20.4915 30.9102V25.7567C21.6433 25.7931 22.7885 25.9453 23.9098 26.211C23.0683 28.8175 21.765 30.5379 20.4915 30.8879V30.9102ZM22.5693 30.6868C23.6214 29.4647 24.385 28.0215 24.8035 26.4642C25.8337 26.78 26.8312 27.194 27.7824 27.7004C26.35 29.1594 24.5397 30.1908 22.5544 30.6793L22.5693 30.6868ZM28.5271 26.9632C27.4485 26.3685 26.3102 25.8893 25.1311 25.5333C25.534 23.8796 25.7513 22.186 25.7791 20.4841H30.9921C30.8781 22.8574 29.9945 25.1291 28.4749 26.9557L28.5271 26.9632Z" fill="#a5a5a5"/>
</g>
<defs>
<clipPath id="clip0_223_16">
<rect width="40" height="40" fill="white"/>
</clipPath>
</defs>
</svg>
