<svg width="40" height="40" viewBox="0 0 40 40" fill="none" xmlns="http://www.w3.org/2000/svg">
<g clip-path="url(#clip0_223_155)">
<path d="M26 28.3833H20.725V17.1083C20.725 16.7114 20.3969 16.3833 20 16.3833H16C15.6031 16.3833 15.275 16.7114 15.275 17.1083C15.275 17.5052 15.6031 17.8333 16 17.8333H19.275V28.3833H14C13.6031 28.3833 13.275 28.7114 13.275 29.1083C13.275 29.5052 13.6031 29.8333 14 29.8333H26C26.3969 29.8333 26.725 29.5052 26.725 29.1083C26.725 28.7114 26.3969 28.3833 26 28.3833Z" fill="#a5a5a5" stroke="#a5a5a5" stroke-width="0.2"/>
<path d="M19.0624 13C20.7193 13 22.0624 11.6569 22.0624 10C22.0624 8.34315 20.7193 7 19.0624 7C17.4056 7 16.0624 8.34315 16.0624 10C16.0624 11.6569 17.4056 13 19.0624 13Z" fill="#a5a5a5"/>
</g>
<defs>
<clipPath id="clip0_223_155">
<rect width="40" height="40" fill="white"/>
</clipPath>
</defs>
</svg>
