<svg width="40" height="40" viewBox="0 0 40 40" fill="none" xmlns="http://www.w3.org/2000/svg">
<g clip-path="url(#clip0_223_126)">
<path d="M20 32.225C14.6917 32.225 10.375 27.9083 10.375 22.6C10.375 17.2917 19.15 7.25 19.525 6.81666C19.7667 6.54166 20.2333 6.54166 20.4667 6.81666C20.8417 7.25 29.6167 17.4583 29.6167 22.6C29.6167 27.7417 25.3 32.225 19.9917 32.225H20ZM20 8.19166C18.1667 10.4 11.625 18.55 11.625 22.6C11.625 27.2167 15.3833 30.975 20 30.975C24.6167 30.975 28.375 27.2167 28.375 22.6C28.375 18.5583 21.8333 10.4 20 8.19166Z" fill="#a5a5a5"/>
<path d="M24.75 23.5C25 25 23.7 27.875 20.5 27.875" stroke="#a5a5a5" stroke-linecap="round"/>
</g>
<defs>
<clipPath id="clip0_223_126">
<rect width="40" height="40" fill="white"/>
</clipPath>
</defs>
</svg>
