<svg width="40" height="40" viewBox="0 0 40 40" fill="none" xmlns="http://www.w3.org/2000/svg">
<g clip-path="url(#clip0_223_143)">
<path d="M29 10.375C28.9417 10.375 23.3583 10.3333 20.4667 7.58332C20.4083 7.51666 20.3333 7.45832 20.2417 7.42499C20.0083 7.32499 19.7417 7.37499 19.5667 7.54999C16.6833 10.3333 11.0583 10.375 11 10.375C10.6583 10.375 10.375 10.6583 10.375 11V20.375C10.375 26.1167 14.2417 31.1333 19.7833 32.5833C19.85 32.6083 19.925 32.625 20 32.625C20.05 32.625 20.1 32.625 20.1583 32.6083C25.7333 31.175 29.625 26.1417 29.625 20.3833V11.0083C29.625 10.6667 29.3417 10.3833 29 10.3833V10.375ZM28.375 20.375C28.375 25.5167 24.9417 30 20.0083 31.35C15.0667 30.0083 11.625 25.5167 11.625 20.375V11.6083C13.1917 11.525 17.3 11.0833 20 8.84166C22.7 11.0833 26.8167 11.525 28.375 11.6083V20.375Z" fill="#a5a5a5"/>
<path d="M14.5583 25.4417C14.6833 25.5667 14.8417 25.625 15 25.625C15.1583 25.625 15.3167 25.5667 15.4417 25.4417L25.4417 15.4417C25.6833 15.2 25.6833 14.8 25.4417 14.5583C25.2 14.3167 24.8 14.3167 24.5583 14.5583L14.5583 24.5583C14.3167 24.8 14.3167 25.2 14.5583 25.4417Z" fill="#a5a5a5"/>
</g>
<defs>
<clipPath id="clip0_223_143">
<rect width="40" height="40" fill="white"/>
</clipPath>
</defs>
</svg>
