<svg xmlns="http://www.w3.org/2000/svg" width="211.6507" height="211.6507">
  <defs>
    <clipPath id="a" clipPathUnits="userSpaceOnUse">
      <path d="M0 158.738h158.738V0H0Z"/>
    </clipPath>
  </defs>
  <path fill="#ed193a" d="m111.2213 37.471 6.5787-7.2587 4.0387 8.948 7.6306-6.144 2.5907 9.4706 8.5-4.8733 1.0787 9.76 9.156-3.4827-.4587 9.808 9.5827-2.0053-1.984 9.6147 9.7813-.48-3.4667 9.1853 9.7374 1.0573-4.856 8.5294 9.4506 2.5693-6.1306 7.6627 8.932 4.0186-7.252 6.608 8.192 5.3694-8.1974 5.3933 7.2574 6.5827-8.9427 4.0413 6.1387 7.6387-9.4614 2.5933 4.8667 8.5053-9.7467 1.0774 3.476 9.1666-9.7973-.4613 2.0027 9.5947-9.604-1.988.4773 9.7933-9.1773-3.4693-1.0574 9.7453-8.524-4.864-2.5666 9.46-7.6574-6.1373-4.0146 8.9426-6.604-7.2613-5.3627 8.2027-5.3893-8.2067-6.5787 7.2653-4.0387-8.9453-7.632 6.14-2.592-9.4667-8.4986 4.8707-1.0787-9.76-9.156 3.48.46-9.8067-9.5867 2.0054 1.9867-9.616-9.7827.4813 3.4654-9.188-9.7374-1.0573 4.8574-8.5254-9.4507-2.5733 6.132-7.664-8.9347-4.016 7.2534-6.6093-8.196-5.368 8.196-5.3907-7.2534-6.584 8.94-4.044-6.1373-7.64 9.4613-2.5947-4.868-8.5053 9.7494-1.0773-3.4774-9.164 9.7974.4573-2.0027-9.5947 9.6053 1.988-.4773-9.7893 9.1773 3.468 1.0574-9.7453 8.524 4.8613 2.568-9.46 7.6573 6.1373 4.0133-8.9413 6.6054 7.256 5.364-8.1973z"/>
  <g clip-path="url(#a)" transform="matrix(1.33333 0 0 -1.33333 0 211.6507)">
    <path fill="#ffde2f" d="M29.1914 79.3701c0 27.736 22.465 50.221 50.179 50.221 27.714 0 50.178-22.485 50.178-50.221 0-27.735-22.464-50.219-50.178-50.219s-50.179 22.484-50.179 50.219"/>
    <path fill="#ffde2f" d="M29.1914 79.3701c0 27.736 22.465 50.221 50.179 50.221 27.714 0 50.178-22.485 50.178-50.221 0-27.735-22.464-50.219-50.178-50.219s-50.179 22.484-50.179 50.219"/>
    <path fill="#ed193a" d="M45.1885 79.3945c0 18.88 15.293 34.187 34.159 34.187 18.865 0 34.156-15.307 34.156-34.187 0-18.881-15.291-34.186-34.156-34.186-18.866 0-34.159 15.305-34.159 34.186"/>
    <path fill="#ed193a" d="M45.1885 79.3945c0 18.88 15.293 34.187 34.159 34.187 18.865 0 34.156-15.307 34.156-34.187 0-18.881-15.291-34.186-34.156-34.186-18.866 0-34.159 15.305-34.159 34.186"/>
    <path fill="#ffde2f" d="m104.9844 95.3057-1.049 3.029-1.012-3.031-3.271-.001 2.652-1.878-1.017-3.028 2.652 1.878 2.643-1.878-.971 3.02 2.607 1.886z"/>
    <path fill="#ffde2f" d="m94.4727 105.252-1.051 3.028-1.012-3.03-3.273-.002 2.652-1.878-1.015-3.027 2.652 1.877 2.643-1.877-.973 3.018 2.609 1.887z"/>
    <path fill="#ffde2f" d="m80.228 109.1797-1.051 3.029-1.01-3.032h-3.273l2.652-1.878-1.016-3.028 2.653 1.878 2.641-1.878-.971 3.019 2.608 1.887z"/>
    <path fill="#ffde2f" d="m66.1553 105.25-1.052 3.03-1.011-3.032-3.272-.001 2.652-1.877-1.015-3.029 2.652 1.878 2.642-1.878-.972 3.02 2.608 1.886z"/>
    <path fill="#ffde2f" d="m55.6416 95.3057-1.051 3.029-1.011-3.031-3.272-.001 2.652-1.878-1.016-3.028 2.652 1.878 2.642-1.878-.971 3.02 2.607 1.886z"/>
    <path fill="#ffde2f" d="m51.7441 80.2695-1.051 3.03-1.011-3.031-3.273-.002 2.653-1.877-1.016-3.028 2.652 1.877 2.643-1.877-.972 3.018 2.607 1.887z"/>
    <path fill="#ffde2f" d="m56.2197 66.5586-1.052 3.029-1.011-3.031-3.272-.002 2.652-1.877-1.015-3.029 2.651 1.879 2.643-1.879-.972 3.019 2.608 1.887z"/>
    <path fill="#ffde2f" d="m65.5771 56.6152-1.051 3.027-1.011-3.03h-3.272l2.652-1.878-1.016-3.029 2.652 1.879 2.642-1.879-.971 3.019 2.607 1.888z"/>
    <path fill="#ffde2f" d="m80.228 51.4883-1.051 3.029-1.012-3.03h-3.271l2.652-1.878-1.017-3.029 2.652 1.877 2.643-1.877-.971 3.021 2.608 1.886z"/>
    <path fill="#ffde2f" d="m94.8809 56.6133-1.051 3.029-1.012-3.03-3.273-.003 2.654-1.876-1.017-3.029 2.652 1.878 2.643-1.878-.971 3.018 2.607 1.887z"/>
    <path fill="#ffde2f" d="m104.2402 66.5586-1.051 3.027-1.012-3.031h-3.273l2.654-1.877-1.019-3.029 2.654 1.879 2.643-1.879-.971 3.019 2.607 1.887z"/>
    <path fill="#ffde2f" d="m109.0508 80.333-1.051 3.03-1.01-3.032-3.273-.002 2.654-1.876-1.019-3.029 2.654 1.879 2.643-1.879-.971 3.02 2.605 1.885z"/>
    <path fill="#ffde2f" d="M91.1172 61.2949c-5.938 6.232-18.267 11.75-32.89 13.961l-.068.373c-.156.887-.256 1.77-.302 2.646 15.145-2.173 28.881-7.91 35.621-15.197a21.473 21.473 0 0 0-2.361-1.783"/>
    <path fill="#ffde2f" d="M82.0645 57.9824c-2.747 4.684-11.121 9.271-21.803 11.43a21.42 21.42 0 0 0-1.358 3.234c12.259-2.113 23.054-7.467 26.165-14.066-.639-.174-1.291-.321-1.957-.44-.35-.06-.697-.113-1.047-.158"/>
    <path fill="#ffde2f" d="M61.9697 66.6582c5.757-1.543 10.644-4.277 12.259-8.227-4.923 1.215-9.277 4.143-12.259 8.227"/>
    <path fill="#ffde2f" d="M79.7573 78.5664c7.399 2.036 14.866 2.808 21.106 2.241.051-.752.062-1.5.035-2.239-5.031.495-11.101.081-17.463-1.363a83.884 83.884 0 0 0 3.19-1.33c5.205.802 10.162.695 13.933-.411a20.611 20.611 0 0 0-.517-2.169c-2.547.763-5.877 1.052-9.616.787 2.936-1.487 5.616-3.09 7.985-4.793-.457-.864-.971-1.694-1.539-2.487-8.916 6.465-23.001 11.773-38.997 13.998.064.975.193 1.937.386 2.879 5.026-.704 9.925-1.711 14.579-2.976 9.202 3.2 18.764 4.844 27.157 4.884.215-.715.392-1.449.535-2.198-7.221.033-15.545-1.179-23.953-3.777 1.075-.334 2.134-.684 3.179-1.046"/>
    <path fill="#ffde2f" d="m104.9844 95.3057-1.049 3.029-1.012-3.031-3.271-.001 2.652-1.878-1.017-3.028 2.652 1.878 2.643-1.878-.971 3.02 2.607 1.886z"/>
    <path fill="#ffde2f" d="m94.4727 105.252-1.051 3.028-1.012-3.03-3.273-.002 2.652-1.878-1.015-3.027 2.652 1.877 2.643-1.877-.973 3.018 2.609 1.887z"/>
    <path fill="#ffde2f" d="m80.228 109.1797-1.051 3.029-1.01-3.032h-3.273l2.652-1.878-1.016-3.028 2.653 1.878 2.641-1.878-.971 3.019 2.608 1.887z"/>
    <path fill="#ffde2f" d="m66.1553 105.25-1.052 3.03-1.011-3.032-3.272-.001 2.652-1.877-1.015-3.029 2.652 1.878 2.642-1.878-.972 3.02 2.608 1.886z"/>
    <path fill="#ffde2f" d="m55.6416 95.3057-1.051 3.029-1.011-3.031-3.272-.001 2.652-1.878-1.016-3.028 2.652 1.878 2.642-1.878-.971 3.02 2.607 1.886z"/>
    <path fill="#ffde2f" d="m51.7441 80.2695-1.051 3.03-1.011-3.031-3.273-.002 2.653-1.877-1.016-3.028 2.652 1.877 2.643-1.877-.972 3.018 2.607 1.887z"/>
    <path fill="#ffde2f" d="m56.2197 66.5586-1.052 3.029-1.011-3.031-3.272-.002 2.652-1.877-1.015-3.029 2.651 1.879 2.643-1.879-.972 3.019 2.608 1.887z"/>
    <path fill="#ffde2f" d="m65.5771 56.6152-1.051 3.027-1.011-3.03h-3.272l2.652-1.878-1.016-3.029 2.652 1.879 2.642-1.879-.971 3.019 2.607 1.888z"/>
    <path fill="#ffde2f" d="m80.228 51.4883-1.051 3.029-1.012-3.03h-3.271l2.652-1.878-1.017-3.029 2.652 1.877 2.643-1.877-.971 3.021 2.608 1.886z"/>
    <path fill="#ffde2f" d="m94.8809 56.6133-1.051 3.029-1.012-3.03-3.273-.003 2.654-1.876-1.017-3.029 2.652 1.878 2.643-1.878-.971 3.018 2.607 1.887z"/>
    <path fill="#ffde2f" d="m104.2402 66.5586-1.051 3.027-1.012-3.031h-3.273l2.654-1.877-1.019-3.029 2.654 1.879 2.643-1.879-.971 3.019 2.607 1.887z"/>
    <path fill="#ffde2f" d="m109.0508 80.333-1.051 3.03-1.01-3.032-3.273-.002 2.654-1.876-1.019-3.029 2.654 1.879 2.643-1.879-.971 3.02 2.605 1.885z"/>
    <path fill="#ffde2f" d="M91.1172 61.2949c-5.938 6.232-18.267 11.75-32.89 13.961l-.068.373c-.156.887-.256 1.77-.302 2.646 15.145-2.173 28.881-7.91 35.621-15.197a21.473 21.473 0 0 0-2.361-1.783"/>
    <path fill="#ffde2f" d="M82.0645 57.9824c-2.747 4.684-11.121 9.271-21.803 11.43a21.42 21.42 0 0 0-1.358 3.234c12.259-2.113 23.054-7.467 26.165-14.066-.639-.174-1.291-.321-1.957-.44-.35-.06-.697-.113-1.047-.158"/>
    <path fill="#ffde2f" d="M61.9697 66.6582c5.757-1.543 10.644-4.277 12.259-8.227-4.923 1.215-9.277 4.143-12.259 8.227"/>
    <path fill="#ffde2f" d="M79.7573 78.5664c7.399 2.036 14.866 2.808 21.106 2.241.051-.752.062-1.5.035-2.239-5.031.495-11.101.081-17.463-1.363a83.884 83.884 0 0 0 3.19-1.33c5.205.802 10.162.695 13.933-.411a20.611 20.611 0 0 0-.517-2.169c-2.547.763-5.877 1.052-9.616.787 2.936-1.487 5.616-3.09 7.985-4.793-.457-.864-.971-1.694-1.539-2.487-8.916 6.465-23.001 11.773-38.997 13.998.064.975.193 1.937.386 2.879 5.026-.704 9.925-1.711 14.579-2.976 9.202 3.2 18.764 4.844 27.157 4.884.215-.715.392-1.449.535-2.198-7.221.033-15.545-1.179-23.953-3.777 1.075-.334 2.134-.684 3.179-1.046"/>
  </g>
  <text xml:space="preserve" fill="#ed193a" font-family="Times New Roman" font-size="10" font-weight="400" style="-inkscape-font-specification:TimesNewRomanPSMT" transform="rotate(-138.54 64.2778 59.094) scale(1.33333)"><tspan x="0" y="0">•</tspan></text>
  <text xml:space="preserve" fill="#ed193a" font-family="Times New Roman" font-size="10" font-weight="400" style="-inkscape-font-specification:TimesNewRomanPSMT" transform="matrix(-.82796 -1.04512 1.0451 -.82796 67.4257 140.499)"><tspan x="0" y="0">P</tspan></text>
  <text xml:space="preserve" fill="#ed193a" font-family="Times New Roman" font-size="10" font-weight="400" style="-inkscape-font-specification:TimesNewRomanPSMT" transform="rotate(-119.334 70.781 48.9858) scale(1.33333)"><tspan x="0" y="0">R</tspan></text>
  <text xml:space="preserve" fill="#ed193a" font-family="Times New Roman" font-size="10" font-weight="400" style="-inkscape-font-specification:TimesNewRomanPSMT" transform="rotate(-108.891 74.5504 42.6205) scale(1.33333)"><tspan x="0" y="0">O</tspan></text>
  <text xml:space="preserve" fill="#ed193a" font-family="Times New Roman" font-size="10" font-weight="400" style="-inkscape-font-specification:TimesNewRomanPSMT" transform="rotate(-98.79 78.1325 35.186) scale(1.33334)"><tspan x="0" y="0">T</tspan></text>
  <text xml:space="preserve" fill="#ed193a" font-family="Times New Roman" font-size="10" font-weight="400" style="-inkscape-font-specification:TimesNewRomanPSMT" transform="rotate(-89.073 82.7665 27.4283) scale(1.33333)"><tspan x="0" y="0">E</tspan></text>
  <text xml:space="preserve" fill="#ed193a" font-family="Times New Roman" font-size="10" font-weight="400" style="-inkscape-font-specification:TimesNewRomanPSMT" transform="matrix(.2109 -1.31655 1.31655 .2109 54.0423 101.581)"><tspan x="0" y="0">C</tspan></text>
  <text xml:space="preserve" fill="#ed193a" font-family="Times New Roman" font-size="10" font-weight="400" style="-inkscape-font-specification:TimesNewRomanPSMT" transform="rotate(-71.403 92.2803 7.7687) scale(1.33333)"><tspan x="0" y="0">T</tspan></text>
  <text xml:space="preserve" fill="#ed193a" font-family="Times New Roman" font-size="10" font-weight="400" style="-inkscape-font-specification:TimesNewRomanPSMT" transform="matrix(.62223 -1.17924 1.17924 .62223 58.0813 85.0413)"><tspan x="0" y="0">E</tspan></text>
  <text xml:space="preserve" fill="#ed193a" font-family="Times New Roman" font-size="10" font-weight="400" style="-inkscape-font-specification:TimesNewRomanPSMT" transform="rotate(-52.09 110.5035 -24.3775) scale(1.33333)"><tspan x="0" y="0">D</tspan></text>
  <text xml:space="preserve" fill="#ed193a" font-family="Times New Roman" font-size="10" font-weight="400" style="-inkscape-font-specification:TimesNewRomanPSMT" transform="matrix(1.05635 -.81358 .81358 1.05635 70.164 67.8017)"><tspan x="0" y="0">D</tspan></text>
  <text xml:space="preserve" fill="#ed193a" font-family="Times New Roman" font-size="10" font-weight="400" style="-inkscape-font-specification:TimesNewRomanPSMT" transform="matrix(1.17872 -.62322 .62322 1.17872 77.8268 61.9813)"><tspan x="0" y="0">E</tspan></text>
  <text xml:space="preserve" fill="#ed193a" font-family="Times New Roman" font-size="10" font-weight="400" style="-inkscape-font-specification:TimesNewRomanPSMT" transform="matrix(1.25814 -.44143 .44143 1.25814 85.0657 58.187)"><tspan x="0" y="0">S</tspan></text>
  <text xml:space="preserve" fill="#ed193a" font-family="Times New Roman" font-size="10" font-weight="400" style="-inkscape-font-specification:TimesNewRomanPSMT" transform="rotate(-12.817 294.5117 -382.0762) scale(1.33333)"><tspan x="0" y="0">I</tspan></text>
  <text xml:space="preserve" fill="#ed193a" font-family="Times New Roman" font-size="10" font-weight="400" style="-inkscape-font-specification:TimesNewRomanPSMT" transform="rotate(-5.042 668.7288 -1067.209) scale(1.33333)"><tspan x="0" y="0">G</tspan></text>
  <text xml:space="preserve" fill="#ed193a" font-family="Times New Roman" font-size="10" font-weight="400" style="-inkscape-font-specification:TimesNewRomanPSMT" transform="rotate(5.658 -491.4104 1099.806) scale(1.33333)"><tspan x="0" y="0">N</tspan></text>
  <text xml:space="preserve" fill="#ed193a" font-family="Times New Roman" font-size="10" font-weight="400" style="-inkscape-font-specification:TimesNewRomanPSMT" transform="rotate(16.201 -134.5597 433.6496) scale(1.33333)"><tspan x="0" y="0">A</tspan></text>
  <text xml:space="preserve" fill="#ed193a" font-family="Times New Roman" font-size="10" font-weight="400" style="-inkscape-font-specification:TimesNewRomanPSMT" transform="matrix(1.21583 .5473 -.5473 1.21583 123.4973 56.9912)"><tspan x="0" y="0">T</tspan></text>
  <text xml:space="preserve" fill="#ed193a" font-family="Times New Roman" font-size="10" font-weight="400" style="-inkscape-font-specification:TimesNewRomanPSMT" transform="matrix(1.14194 .6883 -.6883 1.14194 130.8861 60.4397)"><tspan x="0" y="0">I</tspan></text>
  <text xml:space="preserve" fill="#ed193a" font-family="Times New Roman" font-size="10" font-weight="400" style="-inkscape-font-specification:TimesNewRomanPSMT" transform="matrix(1.0394 .83512 -.83512 1.0394 134.7981 62.594)"><tspan x="0" y="0">O</tspan></text>
  <text xml:space="preserve" fill="#ed193a" font-family="Times New Roman" font-size="10" font-weight="400" style="-inkscape-font-specification:TimesNewRomanPSMT" transform="matrix(.86607 1.01376 -1.01376 .86607 142.323 68.6383)"><tspan x="0" y="0">N</tspan></text>
  <text xml:space="preserve" fill="#ed193a" font-family="Times New Roman" font-size="10" font-weight="400" style="-inkscape-font-specification:TimesNewRomanPSMT" transform="rotate(64.24 12.4642 159.2013) scale(1.33333)"><tspan x="0" y="0">O</tspan></text>
  <text xml:space="preserve" fill="#ed193a" font-family="Times New Roman" font-size="10" font-weight="400" style="-inkscape-font-specification:TimesNewRomanPSMT" transform="rotate(73.925 19.119 146.4283) scale(1.3333)"><tspan x="0" y="0">F</tspan></text>
  <text xml:space="preserve" fill="#ed193a" font-family="Times New Roman" font-size="10" font-weight="400" style="-inkscape-font-specification:TimesNewRomanPSMT" transform="rotate(86.847 26.8874 132.044) scale(1.33333)"><tspan x="0" y="0">O</tspan></text>
  <text xml:space="preserve" fill="#ed193a" font-family="Times New Roman" font-size="10" font-weight="400" style="-inkscape-font-specification:TimesNewRomanPSMT" transform="rotate(96.578 30.9392 124.0925) scale(1.33334)"><tspan x="0" y="0">R</tspan></text>
  <text xml:space="preserve" fill="#ed193a" font-family="Times New Roman" font-size="10" font-weight="400" style="-inkscape-font-specification:TimesNewRomanPSMT" transform="rotate(103.947 32.7953 119.422) scale(1.33333)"><tspan x="0" y="0">I</tspan></text>
  <text xml:space="preserve" fill="#ed193a" font-family="Times New Roman" font-size="10" font-weight="400" style="-inkscape-font-specification:TimesNewRomanPSMT" transform="rotate(111.919 37.0674 112.9644) scale(1.33333)"><tspan x="0" y="0">G</tspan></text>
  <text xml:space="preserve" fill="#ed193a" font-family="Times New Roman" font-size="10" font-weight="400" style="-inkscape-font-specification:TimesNewRomanPSMT" transform="rotate(119.92 38.5002 108.7338) scale(1.33333)"><tspan x="0" y="0">I</tspan></text>
  <text xml:space="preserve" fill="#ed193a" font-family="Times New Roman" font-size="10" font-weight="400" style="-inkscape-font-specification:TimesNewRomanPSMT" transform="rotate(127.89 42.27 103.4264) scale(1.33333)"><tspan x="0" y="0">N</tspan></text>
  <text xml:space="preserve" fill="#ed193a" font-family="Times New Roman" font-size="10" font-weight="400" style="-inkscape-font-specification:TimesNewRomanPSMT" transform="rotate(139.415 44.2157 97.8614) scale(1.33333)"><tspan x="0" y="0">•</tspan></text>
</svg>
