<svg width="40" height="40" viewBox="0 0 40 40" fill="none" xmlns="http://www.w3.org/2000/svg">
<g clip-path="url(#clip0_223_23)">
<path d="M21.15 15.475C20.7917 14.7666 20.1833 14.2333 19.4333 13.9833C18.6833 13.7333 17.875 13.7916 17.1667 14.1416C16.4583 14.5 15.925 15.1083 15.675 15.8583C15.425 16.6083 15.4833 17.4166 15.8333 18.125L16.9333 20.325C17.775 22.0083 18.225 23.8916 18.225 25.775V30.475C18.225 30.8166 18.5083 31.1 18.85 31.1C19.1917 31.1 19.475 30.8166 19.475 30.475V25.775C19.475 23.7 18.9833 21.6166 18.0583 19.7583L16.9583 17.5583C16.75 17.15 16.7167 16.6833 16.8667 16.2416C17.0167 15.8 17.3167 15.45 17.725 15.25C18.1333 15.0416 18.6 15.0083 19.0417 15.1583C19.4833 15.3083 19.8333 15.6083 20.0333 16.025L21.1333 18.225C22.3 20.5583 22.9167 23.1666 22.9167 25.775V30.475C22.9167 30.8166 23.2 31.1 23.5417 31.1C23.8833 31.1 24.1667 30.8166 24.1667 30.475V25.775C24.1667 22.975 23.5083 20.1666 22.25 17.6666L21.15 15.4666V15.475Z" fill="#a5a5a5"/>
<path d="M19.2 16.7083C19.05 16.4 18.675 16.275 18.3667 16.425C18.0583 16.575 17.9333 16.95 18.0833 17.2583L19.1333 19.4C20.075 21.275 20.5667 23.375 20.5667 25.475V31.9833C20.5667 32.325 20.85 32.6083 21.1917 32.6083C21.5333 32.6083 21.8167 32.325 21.8167 31.9833V25.475C21.8167 23.1833 21.275 20.8917 20.25 18.8417L19.2 16.7V16.7083Z" fill="#a5a5a5"/>
<path d="M23.95 14.075C22.9083 12 20.825 10.7083 18.5 10.7083C17.5583 10.7083 16.6167 10.9333 15.775 11.35C14.3167 12.075 13.2333 13.3333 12.7167 14.875C12.2 16.4166 12.3167 18.075 13.05 19.525L14.15 21.725C14.775 22.975 15.1083 24.3833 15.1083 25.7833V28.9833C15.1083 29.325 15.3917 29.6083 15.7333 29.6083C16.075 29.6083 16.3583 29.325 16.3583 28.9833V25.7833C16.3583 24.1916 15.9833 22.5916 15.2667 21.1666L14.1667 18.9666C13.5917 17.8083 13.4917 16.4916 13.9 15.2666C14.3083 14.0416 15.175 13.0416 16.3333 12.4666C17 12.1333 17.75 11.9583 18.5 11.9583C20.35 11.9583 22.0083 12.9833 22.8333 14.6333L23.9333 16.8333C25.3167 19.6 26.05 22.6916 26.05 25.7833V28.9833C26.05 29.325 26.3333 29.6083 26.675 29.6083C27.0167 29.6083 27.3 29.325 27.3 28.9833V25.7833C27.3 22.5 26.525 19.2083 25.0583 16.275L23.9583 14.075H23.95Z" fill="#a5a5a5"/>
<path d="M28.0583 14.8916L27.0417 12.8666C25.4583 9.7083 22.2833 7.74164 18.75 7.74164C17.3167 7.74164 15.8833 8.0833 14.6083 8.71664C12.3917 9.82497 10.7417 11.725 9.95832 14.075C9.17498 16.425 9.34998 18.9333 10.4583 21.15L11.475 23.1833C11.8 23.8333 11.975 24.5583 11.975 25.2916V26.7333C11.975 27.075 12.2583 27.3583 12.6 27.3583C12.9417 27.3583 13.225 27.075 13.225 26.7333V25.2916C13.225 24.3666 13.0083 23.45 12.6 22.625L11.5833 20.5916C10.625 18.675 10.475 16.5 11.15 14.475C11.825 12.4416 13.2583 10.8 15.1667 9.84164C16.275 9.29164 17.5083 8.99164 18.75 8.99164C21.8083 8.99164 24.5583 10.6916 25.925 13.425L26.9417 15.45C28.4583 18.4916 29.2666 21.8916 29.2666 25.2833V27.1083C29.2666 27.45 29.55 27.7333 29.8916 27.7333C30.2333 27.7333 30.5166 27.45 30.5166 27.1083V25.2833C30.5166 21.6916 29.6667 18.1 28.0667 14.8916H28.0583Z" fill="#a5a5a5"/>
</g>
<defs>
<clipPath id="clip0_223_23">
<rect width="40" height="40" fill="white"/>
</clipPath>
</defs>
</svg>
