<svg width="40" height="40" viewBox="0 0 40 40" fill="none" xmlns="http://www.w3.org/2000/svg">
<g clip-path="url(#clip0_223_558)">
<path d="M8 14.625C8.34167 14.625 8.625 14.3417 8.625 14V8.625H13.625C13.9667 8.625 14.25 8.34167 14.25 8C14.25 7.65833 13.9667 7.375 13.625 7.375H8C7.65833 7.375 7.375 7.65833 7.375 8V14C7.375 14.3417 7.65833 14.625 8 14.625Z" fill="#a5a5a5"/>
<path d="M32 7.375H26C25.6583 7.375 25.375 7.65833 25.375 8C25.375 8.34167 25.6583 8.625 26 8.625H31.375V14C31.375 14.3417 31.6583 14.625 32 14.625C32.3417 14.625 32.625 14.3417 32.625 14V8C32.625 7.65833 32.3417 7.375 32 7.375Z" fill="#a5a5a5"/>
<path d="M14 31.375H8.625V26C8.625 25.6583 8.34167 25.375 8 25.375C7.65833 25.375 7.375 25.6583 7.375 26V32C7.375 32.3417 7.65833 32.625 8 32.625H14C14.3417 32.625 14.625 32.3417 14.625 32C14.625 31.6583 14.3417 31.375 14 31.375Z" fill="#a5a5a5"/>
<path d="M32 25.375C31.6583 25.375 31.375 25.6583 31.375 26V31.375H26C25.6583 31.375 25.375 31.6583 25.375 32C25.375 32.3417 25.6583 32.625 26 32.625H32C32.3417 32.625 32.625 32.3417 32.625 32V26C32.625 25.6583 32.3417 25.375 32 25.375Z" fill="#a5a5a5"/>
<path d="M12.75 14.8334C13.2103 14.8334 13.5834 14.4603 13.5834 14C13.5834 13.5398 13.2103 13.1667 12.75 13.1667C12.2898 13.1667 11.9167 13.5398 11.9167 14C11.9167 14.4603 12.2898 14.8334 12.75 14.8334Z" fill="#a5a5a5"/>
<path d="M16.375 14.8334C16.8353 14.8334 17.2084 14.4603 17.2084 14C17.2084 13.5398 16.8353 13.1667 16.375 13.1667C15.9148 13.1667 15.5417 13.5398 15.5417 14C15.5417 14.4603 15.9148 14.8334 16.375 14.8334Z" fill="#a5a5a5"/>
<path d="M20 14.8334C20.4603 14.8334 20.8334 14.4603 20.8334 14C20.8334 13.5398 20.4603 13.1667 20 13.1667C19.5398 13.1667 19.1667 13.5398 19.1667 14C19.1667 14.4603 19.5398 14.8334 20 14.8334Z" fill="#a5a5a5"/>
<path d="M23.625 14.8334C24.0853 14.8334 24.4584 14.4603 24.4584 14C24.4584 13.5398 24.0853 13.1667 23.625 13.1667C23.1648 13.1667 22.7917 13.5398 22.7917 14C22.7917 14.4603 23.1648 14.8334 23.625 14.8334Z" fill="#a5a5a5"/>
<path d="M27.25 14.8334C27.7103 14.8334 28.0834 14.4603 28.0834 14C28.0834 13.5398 27.7103 13.1667 27.25 13.1667C26.7898 13.1667 26.4167 13.5398 26.4167 14C26.4167 14.4603 26.7898 14.8334 27.25 14.8334Z" fill="#a5a5a5"/>
<path d="M12.75 18.8334C13.2103 18.8334 13.5834 18.4603 13.5834 18C13.5834 17.5398 13.2103 17.1667 12.75 17.1667C12.2898 17.1667 11.9167 17.5398 11.9167 18C11.9167 18.4603 12.2898 18.8334 12.75 18.8334Z" fill="#a5a5a5"/>
<path d="M16.375 18.8334C16.8353 18.8334 17.2084 18.4603 17.2084 18C17.2084 17.5398 16.8353 17.1667 16.375 17.1667C15.9148 17.1667 15.5417 17.5398 15.5417 18C15.5417 18.4603 15.9148 18.8334 16.375 18.8334Z" fill="#a5a5a5"/>
<path d="M20 18.8334C20.4603 18.8334 20.8334 18.4603 20.8334 18C20.8334 17.5398 20.4603 17.1667 20 17.1667C19.5398 17.1667 19.1667 17.5398 19.1667 18C19.1667 18.4603 19.5398 18.8334 20 18.8334Z" fill="#a5a5a5"/>
<path d="M23.625 18.8334C24.0853 18.8334 24.4584 18.4603 24.4584 18C24.4584 17.5398 24.0853 17.1667 23.625 17.1667C23.1648 17.1667 22.7917 17.5398 22.7917 18C22.7917 18.4603 23.1648 18.8334 23.625 18.8334Z" fill="#a5a5a5"/>
<path d="M27.25 18.8334C27.7103 18.8334 28.0834 18.4603 28.0834 18C28.0834 17.5398 27.7103 17.1667 27.25 17.1667C26.7898 17.1667 26.4167 17.5398 26.4167 18C26.4167 18.4603 26.7898 18.8334 27.25 18.8334Z" fill="#a5a5a5"/>
<path d="M12.75 22.8333C13.2103 22.8333 13.5834 22.4602 13.5834 22C13.5834 21.5398 13.2103 21.1667 12.75 21.1667C12.2898 21.1667 11.9167 21.5398 11.9167 22C11.9167 22.4602 12.2898 22.8333 12.75 22.8333Z" fill="#a5a5a5"/>
<path d="M16.375 22.8333C16.8353 22.8333 17.2084 22.4602 17.2084 22C17.2084 21.5398 16.8353 21.1667 16.375 21.1667C15.9148 21.1667 15.5417 21.5398 15.5417 22C15.5417 22.4602 15.9148 22.8333 16.375 22.8333Z" fill="#a5a5a5"/>
<path d="M20 22.8333C20.4603 22.8333 20.8334 22.4602 20.8334 22C20.8334 21.5398 20.4603 21.1667 20 21.1667C19.5398 21.1667 19.1667 21.5398 19.1667 22C19.1667 22.4602 19.5398 22.8333 20 22.8333Z" fill="#a5a5a5"/>
<path d="M23.625 22.8333C24.0853 22.8333 24.4584 22.4602 24.4584 22C24.4584 21.5398 24.0853 21.1667 23.625 21.1667C23.1648 21.1667 22.7917 21.5398 22.7917 22C22.7917 22.4602 23.1648 22.8333 23.625 22.8333Z" fill="#a5a5a5"/>
<path d="M27.25 22.8333C27.7103 22.8333 28.0834 22.4602 28.0834 22C28.0834 21.5398 27.7103 21.1667 27.25 21.1667C26.7898 21.1667 26.4167 21.5398 26.4167 22C26.4167 22.4602 26.7898 22.8333 27.25 22.8333Z" fill="#a5a5a5"/>
<path d="M12.75 26.8333C13.2103 26.8333 13.5834 26.4602 13.5834 26C13.5834 25.5398 13.2103 25.1667 12.75 25.1667C12.2898 25.1667 11.9167 25.5398 11.9167 26C11.9167 26.4602 12.2898 26.8333 12.75 26.8333Z" fill="#a5a5a5"/>
<path d="M16.375 26.8333C16.8353 26.8333 17.2084 26.4602 17.2084 26C17.2084 25.5398 16.8353 25.1667 16.375 25.1667C15.9148 25.1667 15.5417 25.5398 15.5417 26C15.5417 26.4602 15.9148 26.8333 16.375 26.8333Z" fill="#a5a5a5"/>
<path d="M20 26.8333C20.4603 26.8333 20.8334 26.4602 20.8334 26C20.8334 25.5398 20.4603 25.1667 20 25.1667C19.5398 25.1667 19.1667 25.5398 19.1667 26C19.1667 26.4602 19.5398 26.8333 20 26.8333Z" fill="#a5a5a5"/>
<path d="M23.625 26.8333C24.0853 26.8333 24.4584 26.4602 24.4584 26C24.4584 25.5398 24.0853 25.1667 23.625 25.1667C23.1648 25.1667 22.7917 25.5398 22.7917 26C22.7917 26.4602 23.1648 26.8333 23.625 26.8333Z" fill="#a5a5a5"/>
<path d="M27.25 26.8333C27.7103 26.8333 28.0834 26.4602 28.0834 26C28.0834 25.5398 27.7103 25.1667 27.25 25.1667C26.7898 25.1667 26.4167 25.5398 26.4167 26C26.4167 26.4602 26.7898 26.8333 27.25 26.8333Z" fill="#a5a5a5"/>
</g>
<defs>
<clipPath id="clip0_223_558">
<rect width="40" height="40" fill="white"/>
</clipPath>
</defs>
</svg>
