<svg width="32" height="32" viewBox="0 0 32 32" fill="none" xmlns="http://www.w3.org/2000/svg">
<g clip-path="url(#clip0_216_2285)">
<path d="M16 32C24.8366 32 32 24.8366 32 16C32 7.16344 24.8366 0 16 0C7.16344 0 0 7.16344 0 16C0 24.8366 7.16344 32 16 32Z" fill="none"/>
<path d="M16.92 12.3801C16.6333 11.8134 16.1467 11.3867 15.5467 11.1867C14.9467 10.9867 14.3 11.0334 13.7333 11.3134C13.1667 11.6001 12.74 12.0867 12.54 12.6867C12.34 13.2867 12.3867 13.9334 12.6667 14.5001L13.5467 16.2601C14.22 17.6067 14.58 19.1134 14.58 20.6201V24.3801C14.58 24.6534 14.8067 24.8801 15.08 24.8801C15.3533 24.8801 15.58 24.6534 15.58 24.3801V20.6201C15.58 18.9601 15.1867 17.2934 14.4467 15.8067L13.5667 14.0467C13.4 13.7201 13.3733 13.3467 13.4933 12.9934C13.6133 12.6401 13.8533 12.3601 14.18 12.2001C14.5067 12.0334 14.88 12.0067 15.2333 12.1267C15.5867 12.2467 15.8667 12.4867 16.0267 12.8201L16.9067 14.5801C17.84 16.4467 18.3333 18.5334 18.3333 20.6201V24.3801C18.3333 24.6534 18.56 24.8801 18.8333 24.8801C19.1067 24.8801 19.3333 24.6534 19.3333 24.3801V20.6201C19.3333 18.3801 18.8067 16.1334 17.8 14.1334L16.92 12.3734V12.3801Z" fill="#DE1355"/>
<path d="M15.36 13.3667C15.24 13.12 14.94 13.02 14.6933 13.14C14.4466 13.26 14.3466 13.56 14.4666 13.8067L15.3066 15.52C16.06 17.02 16.4533 18.7 16.4533 20.38V25.5867C16.4533 25.86 16.68 26.0867 16.9533 26.0867C17.2266 26.0867 17.4533 25.86 17.4533 25.5867V20.38C17.4533 18.5467 17.02 16.7134 16.2 15.0734L15.36 13.36V13.3667Z" fill="#DE1355"/>
<path d="M19.16 11.26C18.3267 9.59998 16.66 8.56665 14.8 8.56665C14.0467 8.56665 13.2934 8.74665 12.62 9.07998C11.4534 9.65998 10.5867 10.6667 10.1734 11.9C9.76003 13.1333 9.85336 14.46 10.44 15.62L11.32 17.38C11.82 18.38 12.0867 19.5067 12.0867 20.6267V23.1866C12.0867 23.46 12.3134 23.6866 12.5867 23.6866C12.86 23.6866 13.0867 23.46 13.0867 23.1866V20.6267C13.0867 19.3533 12.7867 18.0733 12.2134 16.9333L11.3334 15.1733C10.8734 14.2467 10.7934 13.1933 11.12 12.2133C11.4467 11.2333 12.14 10.4333 13.0667 9.97332C13.6 9.70665 14.2 9.56665 14.8 9.56665C16.28 9.56665 17.6067 10.3866 18.2667 11.7066L19.1467 13.4667C20.2534 15.68 20.84 18.1533 20.84 20.6267V23.1866C20.84 23.46 21.0667 23.6866 21.34 23.6866C21.6134 23.6866 21.84 23.46 21.84 23.1866V20.6267C21.84 18 21.22 15.3667 20.0467 13.02L19.1667 11.26H19.16Z" fill="#DE1355"/>
<path d="M22.4467 11.9134L21.6333 10.2934C20.3667 7.76669 17.8267 6.19336 15 6.19336C13.8533 6.19336 12.7067 6.46669 11.6867 6.97336C9.91333 7.86003 8.59333 9.38003 7.96667 11.26C7.34 13.14 7.48 15.1467 8.36667 16.92L9.18 18.5467C9.44 19.0667 9.58 19.6467 9.58 20.2334V21.3867C9.58 21.66 9.80667 21.8867 10.08 21.8867C10.3533 21.8867 10.58 21.66 10.58 21.3867V20.2334C10.58 19.4934 10.4067 18.76 10.08 18.1L9.26667 16.4734C8.5 14.94 8.38 13.2 8.92 11.58C9.46 9.95336 10.6067 8.64003 12.1333 7.87336C13.02 7.43336 14.0067 7.19336 15 7.19336C17.4467 7.19336 19.6467 8.55336 20.74 10.74L21.5533 12.36C22.7667 14.7934 23.4133 17.5134 23.4133 20.2267V21.6867C23.4133 21.96 23.64 22.1867 23.9133 22.1867C24.1867 22.1867 24.4133 21.96 24.4133 21.6867V20.2267C24.4133 17.3534 23.7333 14.48 22.4533 11.9134H22.4467Z" fill="#DE1355"/>
</g>
<defs>
<clipPath id="clip0_216_2285">
<rect width="32" height="32" fill="#DE1355"/>
</clipPath>
</defs>
</svg>
