<svg width="40" height="40" viewBox="0 0 40 40" fill="none" xmlns="http://www.w3.org/2000/svg">
<g clip-path="url(#clip0_238_60)">
<path d="M31.6417 9.46664H27.1917V6.97498C27.1917 6.63331 26.9083 6.34998 26.5667 6.34998C26.225 6.34998 25.9417 6.63331 25.9417 6.97498V9.46664H14V6.97498C14 6.63331 13.7167 6.34998 13.375 6.34998C13.0333 6.34998 12.75 6.63331 12.75 6.97498V9.46664H8.29999C7.95832 9.46664 7.67499 9.74998 7.67499 10.0916V30.2166C7.67499 30.5583 7.95832 30.8416 8.29999 30.8416H31.6333C31.975 30.8416 32.2583 30.5583 32.2583 30.2166V10.0916C32.2583 9.74998 31.975 9.46664 31.6333 9.46664H31.6417ZM12.75 10.7166V12.7416C12.75 13.0833 13.0333 13.3666 13.375 13.3666C13.7167 13.3666 14 13.0833 14 12.7416V10.7166H25.9417V12.7416C25.9417 13.0833 26.225 13.3666 26.5667 13.3666C26.9083 13.3666 27.1917 13.0833 27.1917 12.7416V10.7166H31.0167V14.9916H8.93332V10.7166H12.7583H12.75ZM8.92499 29.5916V16.2416H31.0083V29.5916H8.93332H8.92499Z" fill="#DE1355"/>
<path d="M13.525 21.5333C13.9852 21.5333 14.3583 21.1602 14.3583 20.7C14.3583 20.2397 13.9852 19.8666 13.525 19.8666C13.0647 19.8666 12.6917 20.2397 12.6917 20.7C12.6917 21.1602 13.0647 21.5333 13.525 21.5333Z" fill="#DE1355"/>
<path d="M17.825 21.5333C18.2852 21.5333 18.6583 21.1602 18.6583 20.7C18.6583 20.2397 18.2852 19.8666 17.825 19.8666C17.3647 19.8666 16.9916 20.2397 16.9916 20.7C16.9916 21.1602 17.3647 21.5333 17.825 21.5333Z" fill="#DE1355"/>
<path d="M22.125 21.5333C22.5852 21.5333 22.9583 21.1602 22.9583 20.7C22.9583 20.2397 22.5852 19.8666 22.125 19.8666C21.6647 19.8666 21.2916 20.2397 21.2916 20.7C21.2916 21.1602 21.6647 21.5333 22.125 21.5333Z" fill="#DE1355"/>
<path d="M26.4333 21.5333C26.8935 21.5333 27.2666 21.1602 27.2666 20.7C27.2666 20.2397 26.8935 19.8666 26.4333 19.8666C25.9731 19.8666 25.6 20.2397 25.6 20.7C25.6 21.1602 25.9731 21.5333 26.4333 21.5333Z" fill="#DE1355"/>
<path d="M13.525 25.825C13.9852 25.825 14.3583 25.4519 14.3583 24.9917C14.3583 24.5314 13.9852 24.1583 13.525 24.1583C13.0647 24.1583 12.6917 24.5314 12.6917 24.9917C12.6917 25.4519 13.0647 25.825 13.525 25.825Z" fill="#DE1355"/>
<path d="M17.825 25.825C18.2852 25.825 18.6583 25.4519 18.6583 24.9917C18.6583 24.5314 18.2852 24.1583 17.825 24.1583C17.3647 24.1583 16.9916 24.5314 16.9916 24.9917C16.9916 25.4519 17.3647 25.825 17.825 25.825Z" fill="#DE1355"/>
<path d="M22.125 25.825C22.5852 25.825 22.9583 25.4519 22.9583 24.9917C22.9583 24.5314 22.5852 24.1583 22.125 24.1583C21.6647 24.1583 21.2916 24.5314 21.2916 24.9917C21.2916 25.4519 21.6647 25.825 22.125 25.825Z" fill="#DE1355"/>
<path d="M26.4333 25.825C26.8935 25.825 27.2666 25.4519 27.2666 24.9917C27.2666 24.5314 26.8935 24.1583 26.4333 24.1583C25.9731 24.1583 25.6 24.5314 25.6 24.9917C25.6 25.4519 25.9731 25.825 26.4333 25.825Z" fill="#DE1355"/>
</g>
<defs>
<clipPath id="clip0_238_60">
<rect width="40" height="40" fill="white"/>
</clipPath>
</defs>
</svg>
