<svg width="40" height="40" viewBox="0 0 40 40" fill="none" xmlns="http://www.w3.org/2000/svg">
<g clip-path="url(#clip0_223_41)">
<path d="M31.2833 16.7584C31.2083 16.7167 29.6166 15.925 28.1083 15.3417C29.7666 12.9167 29.6833 10.425 29.675 10.3084C29.6583 10 29.425 9.74169 29.1166 9.71669C28.9916 9.70002 26.3416 9.45002 24.025 11.225C23.4416 9.73336 22.675 8.18336 22.6333 8.10836C22.55 7.94169 22.3916 7.81669 22.2083 7.77502C22.025 7.73336 21.8333 7.77502 21.6833 7.90002C21.5833 7.98336 19.5416 9.64169 18.8666 12.2917C17.8583 10.7417 17.35 9.55836 17.3416 9.54169C17.2583 9.35002 17.0916 9.21669 16.8833 9.17502C16.675 9.13336 16.4666 9.20002 16.325 9.35002C12.6916 12.9834 12.5583 18.8084 15.9083 22.6084L15.4333 23.0834L13.6833 21.25C12.2083 19.775 9.80831 19.775 8.33331 21.25C7.61664 21.9667 7.22498 22.9167 7.22498 23.925C7.22498 24.9334 7.61664 25.8834 8.33331 26.6C9.04998 27.3167 9.99998 27.7084 11.0083 27.7084C12.0166 27.7084 12.9666 27.3167 13.6833 26.6L15.4083 24.875L19.7666 29.45C19.95 29.6334 20.05 29.8667 20.05 30.125C20.05 30.3834 19.95 30.6167 19.7666 30.8C19.4083 31.1584 18.775 31.1584 18.4166 30.8C18.2333 30.6167 18.1416 30.3834 18.1416 30.125C18.1416 29.8667 18.2416 29.6334 18.4166 29.45C18.6583 29.2084 18.6583 28.8084 18.4166 28.5667C18.175 28.325 17.775 28.325 17.5333 28.5667C17.1166 28.9834 16.8916 29.5334 16.8916 30.125C16.8916 30.7167 17.1166 31.2667 17.5333 31.6834C17.95 32.1 18.5 32.325 19.0916 32.325C19.6833 32.325 20.2333 32.1 20.65 31.6834C21.0666 31.2667 21.3 30.7167 21.3 30.125C21.3 29.5334 21.075 29 20.675 28.5834C20.675 28.5834 20.675 28.5834 20.675 28.575L16.2916 23.975L16.7833 23.4834C18.5583 25.0417 20.8 25.9084 23.1833 25.9084C25.775 25.9084 28.2166 24.9 30.05 23.0667C30.2 22.9167 30.2583 22.7084 30.225 22.5084C30.1916 22.3084 30.05 22.1334 29.8583 22.05C29.8416 22.05 28.6583 21.5334 27.1083 20.525C29.75 19.85 31.4166 17.8167 31.5 17.7084C31.6166 17.5584 31.6666 17.3667 31.625 17.1834C31.5833 17 31.4666 16.8417 31.2916 16.7584H31.2833ZM12.8 25.7084C11.8083 26.7 10.2083 26.7 9.21664 25.7084C8.74164 25.2334 8.47498 24.5917 8.47498 23.9167C8.47498 23.2417 8.74164 22.6 9.21664 22.125C9.70831 21.6334 10.3666 21.3834 11.0083 21.3834C11.65 21.3834 12.3 21.625 12.7833 22.1167L14.5416 23.9584L12.7916 25.7084H12.8ZM25.425 19.4917C25.1583 19.4917 24.9166 19.6667 24.8333 19.9167C24.75 20.175 24.8333 20.45 25.05 20.6167C26.4333 21.6584 27.7083 22.375 28.5083 22.7917C27.0083 24.0084 25.15 24.6667 23.1916 24.6667C21.2333 24.6667 19.2083 23.9334 17.675 22.6084L24.85 15.4334C25.0916 15.1917 25.0916 14.7917 24.85 14.55C24.6083 14.3084 24.2083 14.3084 23.9666 14.55L16.7833 21.7334C14.1166 18.6417 14.05 14.0584 16.6 10.9084C17.0166 11.7084 17.7333 12.9834 18.775 14.3584C18.9333 14.575 19.2166 14.6584 19.475 14.575C19.7333 14.4917 19.9 14.25 19.9 13.9834C19.9 11.9 21.125 10.2584 21.875 9.45002C22.2416 10.2417 22.8083 11.4917 23.15 12.5084C23.2166 12.7167 23.3916 12.8667 23.6 12.9167C23.8083 12.9667 24.0333 12.9 24.1833 12.75C25.6333 11.2917 27.4666 11.0167 28.3916 10.975C28.3 11.875 27.95 13.6667 26.6166 15.2584C26.4833 15.4167 26.4416 15.6334 26.4916 15.8334C26.55 16.0334 26.7 16.1917 26.8916 16.2584C27.9083 16.6 29.1583 17.1584 29.95 17.5334C29.1333 18.2917 27.5 19.5084 25.4166 19.5084L25.425 19.4917Z" fill="#DE1355"/>
</g>
<defs>
<clipPath id="clip0_223_41">
<rect width="40" height="40" fill="white"/>
</clipPath>
</defs>
</svg>
