<svg width="40" height="40" viewBox="0 0 40 40" fill="none" xmlns="http://www.w3.org/2000/svg">
<g clip-path="url(#clip0_223_50)">
<path d="M33.3917 6.59166C33.1667 6.36666 32.8 6.36666 32.575 6.59166L25.5 13.7167C22.55 13.05 19.35 13.775 16.95 15.8833L16.475 15.4083L18.3083 13.6583C19.7833 12.1833 19.7833 9.78333 18.3083 8.30833C17.5917 7.59166 16.6417 7.2 15.6333 7.2C14.625 7.2 13.675 7.59166 12.9583 8.30833C11.4833 9.78333 11.4833 12.1833 12.9583 13.6583L14.6833 15.3833L10.1083 19.7417C9.73333 20.1167 9.13333 20.1167 8.75833 19.7417C8.575 19.5583 8.475 19.325 8.475 19.0667C8.475 18.8083 8.575 18.575 8.75833 18.3917C9.11666 18.0333 9.75 18.0333 10.1083 18.3917C10.35 18.6333 10.75 18.6333 10.9917 18.3917C11.2333 18.15 11.2333 17.75 10.9917 17.5083C10.1583 16.675 8.70833 16.675 7.875 17.5083C7.01666 18.3667 7.01666 19.7667 7.875 20.625C8.30833 21.0583 8.86666 21.2667 9.43333 21.2667C10 21.2667 10.5417 21.0583 10.9667 20.6417H10.975L15.575 16.2583L16.0667 16.75C13.9417 19.1667 13.225 22.3917 13.9167 25.3583L6.71666 32.6083C6.49166 32.8333 6.49166 33.2 6.71666 33.4333C6.83333 33.55 6.975 33.6 7.125 33.6C7.275 33.6 7.41666 33.5417 7.53333 33.4333L14.3 26.6167C14.775 27.85 15.5 29.0167 16.4917 30.0083C16.6417 30.1583 16.85 30.2167 17.05 30.1833C17.25 30.1417 17.425 30.0083 17.5083 29.8167C17.5083 29.8 18.0333 28.6167 19.0333 27.0667C19.7083 29.7083 21.7417 31.375 21.85 31.4583C21.9583 31.55 22.1 31.5917 22.2417 31.5917C22.2833 31.5917 22.3333 31.5917 22.375 31.575C22.5583 31.5333 22.7167 31.4167 22.8 31.2417C22.8417 31.1667 23.6333 29.575 24.2167 28.0667C26.6417 29.725 29.1333 29.65 29.25 29.6333C29.5583 29.625 29.8167 29.3833 29.8417 29.075C29.8583 28.95 30.1083 26.3 28.3417 23.9833C29.8333 23.4 31.3833 22.6333 31.4583 22.5917C31.625 22.5083 31.75 22.35 31.7917 22.1667C31.8333 21.9833 31.7917 21.7917 31.6667 21.6417C31.5833 21.5417 29.925 19.5 27.275 18.825C28.825 17.8167 30.0083 17.3083 30.025 17.3C30.2167 17.2167 30.35 17.05 30.3917 16.8417C30.4333 16.6333 30.3667 16.425 30.2167 16.2833C29.2083 15.275 28.025 14.5417 26.7667 14.0667L33.4 7.39166C33.625 7.16666 33.625 6.8 33.4 6.56666L33.3917 6.59166ZM24.4333 14.7833L20.1583 19.0917L17.8333 16.7667C19.7083 15.15 22.1167 14.4917 24.4333 14.7833ZM13.8417 12.775C12.85 11.7833 12.85 10.1833 13.8417 9.19166C14.3167 8.71666 14.9583 8.45 15.6333 8.45C16.3083 8.45 16.95 8.71666 17.425 9.19166C18.4167 10.1833 18.4167 11.7833 17.4333 12.7667L15.5917 14.525L13.8417 12.775ZM16.9417 17.65L19.2667 19.975L14.9667 24.3083C14.65 21.975 15.3083 19.5333 16.9417 17.65ZM28.65 16.5833C27.85 17 26.5833 17.7167 25.2 18.7583C24.9833 18.9167 24.9 19.2 24.9833 19.4583C25.0667 19.7167 25.3083 19.8833 25.575 19.8833C27.6583 19.8833 29.3 21.1083 30.1083 21.8583C29.3167 22.225 28.0667 22.7917 27.05 23.1333C26.8417 23.2 26.6917 23.375 26.6417 23.5833C26.5917 23.7917 26.6583 24.0167 26.8083 24.1667C28.2667 25.6167 28.5417 27.45 28.5833 28.375C27.6833 28.2833 25.8917 27.9333 24.3 26.6C24.1417 26.4667 23.925 26.425 23.725 26.475C23.525 26.525 23.3667 26.6833 23.3 26.875C22.9583 27.8917 22.4 29.1417 22.025 29.9333C21.2667 29.1167 20.05 27.4833 20.05 25.4C20.05 25.1333 19.875 24.8917 19.625 24.8083C19.5583 24.7833 19.4917 24.775 19.425 24.775C19.2333 24.775 19.0417 24.8667 18.925 25.025C17.8917 26.4083 17.1667 27.675 16.75 28.475C16.0583 27.6167 15.5583 26.6583 15.25 25.65L20.075 20.7917L24.1083 24.825C24.2333 24.95 24.3917 25.0083 24.55 25.0083C24.7083 25.0083 24.8667 24.95 24.9917 24.825C25.2333 24.5833 25.2333 24.1833 24.9917 23.9417L20.9583 19.9083L25.7583 15.075C26.7833 15.3833 27.7667 15.8833 28.6417 16.5833H28.65Z" fill="#DE1355"/>
</g>
<defs>
<clipPath id="clip0_223_50">
<rect width="40" height="40" fill="white"/>
</clipPath>
</defs>
</svg>
