<svg width="40" height="40" viewBox="0 0 40 40" fill="none" xmlns="http://www.w3.org/2000/svg">
<g clip-path="url(#clip0_223_66)">
<path d="M32 31.375H20.625V29.625H26C29.65 29.625 32.625 26.65 32.625 23C32.625 22.6583 32.3417 22.375 32 22.375C31.6583 22.375 31.375 22.6583 31.375 23C31.375 25.9667 28.9667 28.375 26 28.375H14C11.0333 28.375 8.625 25.9667 8.625 23C8.625 22.6583 8.34167 22.375 8 22.375C7.65833 22.375 7.375 22.6583 7.375 23C7.375 26.65 10.35 29.625 14 29.625H19.375V31.375H8C7.65833 31.375 7.375 31.6583 7.375 32C7.375 32.3417 7.65833 32.625 8 32.625H32C32.3417 32.625 32.625 32.3417 32.625 32C32.625 31.6583 32.3417 31.375 32 31.375Z" fill="#a5a5a5"/>
<path d="M14.1917 17.05C13.975 17.4917 13.85 17.975 13.85 18.5C13.85 20.25 15.2083 21.675 16.9167 21.825C16.7 22.2667 16.575 22.75 16.575 23.275C16.575 25.125 18.075 26.625 19.925 26.625C21.775 26.625 23.275 25.125 23.275 23.275C23.275 22.75 23.1417 22.2667 22.9333 21.825C24.65 21.675 26 20.25 26 18.5C26 17.9833 25.8667 17.4917 25.6583 17.05C27.375 16.9 28.725 15.475 28.725 13.725C28.725 11.875 27.225 10.375 25.375 10.375C24.25 10.375 23.2583 10.9417 22.65 11.7917C22.1583 11.1 21.4167 10.6 20.55 10.4417V8.625H22.925C23.2667 8.625 23.55 8.34167 23.55 8C23.55 7.65833 23.2667 7.375 22.925 7.375H16.925C16.5833 7.375 16.3 7.65833 16.3 8C16.3 8.34167 16.5833 8.625 16.925 8.625H19.3V10.4417C18.4333 10.6083 17.6917 11.1 17.2 11.7917C16.5917 10.9417 15.6 10.375 14.475 10.375C12.625 10.375 11.125 11.875 11.125 13.725C11.125 15.475 12.4833 16.9 14.1917 17.05ZM15.1 18.5C15.1 17.3417 16.0417 16.4 17.2 16.4C18.3583 16.4 19.3 17.3417 19.3 18.5C19.3 19.6583 18.3583 20.6 17.2 20.6C16.0417 20.6 15.1 19.6583 15.1 18.5ZM19.9333 25.375C18.775 25.375 17.8333 24.4333 17.8333 23.275C17.8333 22.1167 18.775 21.175 19.9333 21.175C21.0917 21.175 22.0333 22.1167 22.0333 23.275C22.0333 24.4333 21.0917 25.375 19.9333 25.375ZM22.6583 20.6C21.5 20.6 20.5583 19.6583 20.5583 18.5C20.5583 17.3417 21.5 16.4 22.6583 16.4C23.8167 16.4 24.7583 17.3417 24.7583 18.5C24.7583 19.6583 23.8167 20.6 22.6583 20.6ZM25.3833 11.625C26.5417 11.625 27.4833 12.5667 27.4833 13.725C27.4833 14.8833 26.5417 15.825 25.3833 15.825C24.225 15.825 23.2833 14.8833 23.2833 13.725C23.2833 12.5667 24.225 11.625 25.3833 11.625ZM19.925 11.625C21.0833 11.625 22.025 12.5667 22.025 13.725C22.025 14.8833 21.0833 15.825 19.925 15.825C18.7667 15.825 17.825 14.8833 17.825 13.725C17.825 12.5667 18.7667 11.625 19.925 11.625ZM14.4667 11.625C15.625 11.625 16.5667 12.5667 16.5667 13.725C16.5667 14.8833 15.625 15.825 14.4667 15.825C13.3083 15.825 12.3667 14.8833 12.3667 13.725C12.3667 12.5667 13.3083 11.625 14.4667 11.625Z" fill="#a5a5a5"/>
</g>
<defs>
<clipPath id="clip0_223_66">
<rect width="40" height="40" fill="white"/>
</clipPath>
</defs>
</svg>
