<svg width="40" height="40" viewBox="0 0 40 40" fill="none" xmlns="http://www.w3.org/2000/svg">
<g clip-path="url(#clip0_223_57)">
<path d="M22.7681 2.91669V9.10566C22.7681 9.59467 22.9473 10.0667 23.2717 10.4326L26.1718 13.7029C26.4962 14.0688 26.6754 14.5409 26.6754 15.0299V34.0025C26.6754 35.107 25.7799 36.0025 24.6754 36.0025H20.6013" stroke="#DE1355" stroke-width="1.2" stroke-linecap="round"/>
<path d="M20.6012 36.0025H16.3416C15.237 36.0025 14.3416 35.107 14.3416 34.0025V14.7316C14.3416 14.234 14.527 13.7544 14.8617 13.3862L17.4929 10.492C17.8276 10.1238 18.0131 9.64415 18.0131 9.1466V2.91669" stroke="#DE1355" stroke-width="1.2" stroke-linecap="round"/>
<path d="M24.0332 21.9917C23.3082 21.9917 22.6665 22.3167 22.2248 22.8167C21.9082 22.4667 21.4998 22.2083 21.0332 22.0833V21.25H22.3998C22.7415 21.25 23.0248 20.9667 23.0248 20.625C23.0248 20.2833 22.7415 20 22.3998 20H18.4082C18.0665 20 17.7832 20.2833 17.7832 20.625C17.7832 20.9667 18.0665 21.25 18.4082 21.25H19.7748V22.0833C19.3082 22.2083 18.8998 22.4667 18.5915 22.8167C18.1415 22.3167 17.4998 21.9917 16.7832 21.9917C15.4415 21.9917 14.3415 23.0833 14.3415 24.425C14.3415 25.6 15.1832 26.5917 16.2915 26.8167C16.2082 27.0667 16.1498 27.325 16.1498 27.6C16.1498 28.775 16.9915 29.7667 18.0998 29.9917C18.0165 30.2417 17.9582 30.5 17.9582 30.775C17.9582 32.1167 19.0498 33.2083 20.3915 33.2083C21.7332 33.2083 22.8332 32.1167 22.8332 30.775C22.8332 30.5 22.7748 30.2417 22.6915 29.9917C23.8082 29.7667 24.6415 28.7833 24.6415 27.6C24.6415 27.325 24.5832 27.0667 24.4998 26.8167C25.6165 26.5917 26.4498 25.6083 26.4498 24.425C26.4498 23.0833 25.3582 21.9917 24.0082 21.9917H24.0332ZM20.4082 23.2417C21.0665 23.2417 21.5998 23.775 21.5998 24.425C21.5998 25.075 21.0665 25.6083 20.4082 25.6083C19.7498 25.6083 19.2248 25.075 19.2248 24.425C19.2248 23.775 19.7582 23.2417 20.4082 23.2417ZM15.5998 24.425C15.5998 23.7667 16.1332 23.2417 16.7915 23.2417C17.4498 23.2417 17.9748 23.775 17.9748 24.425C17.9748 25.075 17.4415 25.6083 16.7915 25.6083C16.1415 25.6083 15.5998 25.075 15.5998 24.425ZM17.4165 27.6C17.4165 26.9417 17.9498 26.4083 18.5998 26.4083C19.2498 26.4083 19.7832 26.9417 19.7832 27.6C19.7832 28.2583 19.2498 28.7833 18.5998 28.7833C17.9498 28.7833 17.4165 28.25 17.4165 27.6ZM20.4165 31.9583C19.7582 31.9583 19.2332 31.425 19.2332 30.775C19.2332 30.125 19.7665 29.5917 20.4165 29.5917C21.0665 29.5917 21.6082 30.125 21.6082 30.775C21.6082 31.425 21.0748 31.9583 20.4165 31.9583ZM22.2332 28.7833C21.5748 28.7833 21.0415 28.25 21.0415 27.6C21.0415 26.95 21.5748 26.4083 22.2332 26.4083C22.8915 26.4083 23.4165 26.9417 23.4165 27.6C23.4165 28.2583 22.8832 28.7833 22.2332 28.7833ZM24.0415 25.6083C23.3832 25.6083 22.8582 25.075 22.8582 24.425C22.8582 23.775 23.3915 23.2417 24.0415 23.2417C24.6915 23.2417 25.2332 23.775 25.2332 24.425C25.2332 25.075 24.6998 25.6083 24.0415 25.6083Z" fill="#DE1355"/>
</g>
<defs>
<clipPath id="clip0_223_57">
<rect width="40" height="40" fill="white"/>
</clipPath>
</defs>
</svg>
