<?xml version="1.0" encoding="UTF-8" standalone="no"?>
<!-- Created with Inkscape (http://www.inkscape.org/) -->

<svg
   version="1.1"
   id="svg1"
   width="425.31067"
   height="213.396"
   viewBox="0 0 425.31067 213.396"
   sodipodi:docname="upload_jj56ilr7qkesb5ejpkxl3cby4x.pdf"
   xmlns:inkscape="http://www.inkscape.org/namespaces/inkscape"
   xmlns:sodipodi="http://sodipodi.sourceforge.net/DTD/sodipodi-0.dtd"
   xmlns="http://www.w3.org/2000/svg"
   xmlns:svg="http://www.w3.org/2000/svg">
  <defs
     id="defs1">
    <clipPath
       clipPathUnits="userSpaceOnUse"
       id="clipPath1">
      <path
         d="M 0,160.047 H 318.983 V 0 H 0 Z"
         id="path1" />
    </clipPath>
    <clipPath
       clipPathUnits="userSpaceOnUse"
       id="clipPath4">
      <path
         d="M 0,160.047 H 318.983 V 0 H 0 Z"
         transform="translate(-98.4187,-128.0668)"
         id="path4" />
    </clipPath>
    <clipPath
       clipPathUnits="userSpaceOnUse"
       id="clipPath5">
      <path
         d="M 0,160.047 H 318.983 V 0 H 0 Z"
         transform="translate(-91.208605,-123.7407)"
         id="path5" />
    </clipPath>
    <clipPath
       clipPathUnits="userSpaceOnUse"
       id="clipPath6">
      <path
         d="M 0,160.047 H 318.983 V 0 H 0 Z"
         transform="translate(-20.5339,-135.5762)"
         id="path6" />
    </clipPath>
    <clipPath
       clipPathUnits="userSpaceOnUse"
       id="clipPath7">
      <path
         d="M 0,160.047 H 318.983 V 0 H 0 Z"
         transform="translate(-46.147301,-127.5772)"
         id="path7" />
    </clipPath>
    <clipPath
       clipPathUnits="userSpaceOnUse"
       id="clipPath8">
      <path
         d="M 0,160.047 H 318.983 V 0 H 0 Z"
         transform="translate(-59.126501,-128.0668)"
         id="path8" />
    </clipPath>
    <clipPath
       clipPathUnits="userSpaceOnUse"
       id="clipPath9">
      <path
         d="M 0,160.047 H 318.983 V 0 H 0 Z"
         transform="translate(-76.679904,-126.9353)"
         id="path9" />
    </clipPath>
    <clipPath
       clipPathUnits="userSpaceOnUse"
       id="clipPath10">
      <path
         d="M 0,160.047 H 318.983 V 0 H 0 Z"
         transform="translate(-89.248405,-127.0603)"
         id="path10" />
    </clipPath>
    <clipPath
       clipPathUnits="userSpaceOnUse"
       id="clipPath11">
      <path
         d="M 0,160.047 H 318.983 V 0 H 0 Z"
         transform="translate(-111.53451,-124.5297)"
         id="path11" />
    </clipPath>
    <clipPath
       clipPathUnits="userSpaceOnUse"
       id="clipPath12">
      <path
         d="M 0,160.047 H 318.983 V 0 H 0 Z"
         transform="translate(-30.080101,-127.5483)"
         id="path12" />
    </clipPath>
    <clipPath
       clipPathUnits="userSpaceOnUse"
       id="clipPath13">
      <path
         d="M 0,160.047 H 318.983 V 0 H 0 Z"
         transform="translate(-20.5339,-116.5307)"
         id="path13" />
    </clipPath>
    <clipPath
       clipPathUnits="userSpaceOnUse"
       id="clipPath14">
      <path
         d="M 0,160.047 H 318.983 V 0 H 0 Z"
         transform="translate(-46.256201,-116.2858)"
         id="path14" />
    </clipPath>
    <clipPath
       clipPathUnits="userSpaceOnUse"
       id="clipPath15">
      <path
         d="M 0,160.047 H 318.983 V 0 H 0 Z"
         transform="translate(-51.916402,-123.7407)"
         id="path15" />
    </clipPath>
    <clipPath
       clipPathUnits="userSpaceOnUse"
       id="clipPath16">
      <path
         d="M 0,160.047 H 318.983 V 0 H 0 Z"
         transform="translate(-73.439502,-116.5307)"
         id="path16" />
    </clipPath>
    <clipPath
       clipPathUnits="userSpaceOnUse"
       id="clipPath17">
      <path
         d="M 0,160.047 H 318.983 V 0 H 0 Z"
         transform="translate(-84.8134,-116.5307)"
         id="path17" />
    </clipPath>
    <clipPath
       clipPathUnits="userSpaceOnUse"
       id="clipPath18">
      <path
         d="M 0,160.047 H 318.983 V 0 H 0 Z"
         transform="translate(-107.3988,-124.5297)"
         id="path18" />
    </clipPath>
    <clipPath
       clipPathUnits="userSpaceOnUse"
       id="clipPath19">
      <path
         d="M 0,160.047 H 318.983 V 0 H 0 Z"
         transform="translate(-34.147501,-124.5532)"
         id="path19" />
    </clipPath>
    <clipPath
       clipPathUnits="userSpaceOnUse"
       id="clipPath20">
      <path
         d="M 0,160.047 H 318.983 V 0 H 0 Z"
         transform="translate(-24.2314,-123.7455)"
         id="path20" />
    </clipPath>
    <clipPath
       clipPathUnits="userSpaceOnUse"
       id="clipPath21">
      <path
         d="M 0,160.047 H 318.983 V 0 H 0 Z"
         id="path21" />
    </clipPath>
    <clipPath
       clipPathUnits="userSpaceOnUse"
       id="clipPath22">
      <path
         d="M 0,160.047 H 318.983 V 0 H 0 Z"
         id="path22" />
    </clipPath>
    <clipPath
       clipPathUnits="userSpaceOnUse"
       id="clipPath23">
      <path
         d="M 0,160.047 H 318.983 V 0 H 0 Z"
         transform="translate(-172.4455,-133.2055)"
         id="path23" />
    </clipPath>
    <clipPath
       clipPathUnits="userSpaceOnUse"
       id="clipPath24">
      <path
         d="M 0,160.047 H 318.983 V 0 H 0 Z"
         transform="translate(-163.17141,-138.5555)"
         id="path24" />
    </clipPath>
    <clipPath
       clipPathUnits="userSpaceOnUse"
       id="clipPath25">
      <path
         d="M 0,160.047 H 318.983 V 0 H 0 Z"
         transform="translate(-151.1656,-127.8447)"
         id="path25" />
    </clipPath>
    <clipPath
       clipPathUnits="userSpaceOnUse"
       id="clipPath26">
      <path
         d="M 0,160.047 H 318.983 V 0 H 0 Z"
         transform="translate(-155.3301,-120.5043)"
         id="path26" />
    </clipPath>
    <clipPath
       clipPathUnits="userSpaceOnUse"
       id="clipPath27">
      <path
         d="M 0,160.047 H 318.983 V 0 H 0 Z"
         transform="translate(-154.93581,-132.4359)"
         id="path27" />
    </clipPath>
    <clipPath
       clipPathUnits="userSpaceOnUse"
       id="clipPath28">
      <path
         d="M 0,160.047 H 318.983 V 0 H 0 Z"
         transform="translate(-157.816,-137.1173)"
         id="path28" />
    </clipPath>
    <clipPath
       clipPathUnits="userSpaceOnUse"
       id="clipPath29">
      <path
         d="M 0,160.047 H 318.983 V 0 H 0 Z"
         transform="translate(-159.25581,-116.5787)"
         id="path29" />
    </clipPath>
    <clipPath
       clipPathUnits="userSpaceOnUse"
       id="clipPath30">
      <path
         d="M 0,160.047 H 318.983 V 0 H 0 Z"
         transform="translate(-164.6035,-115.1576)"
         id="path30" />
    </clipPath>
    <clipPath
       clipPathUnits="userSpaceOnUse"
       id="clipPath31">
      <path
         d="M 0,160.047 H 318.983 V 0 H 0 Z"
         transform="translate(-169.9513,-116.5787)"
         id="path31" />
    </clipPath>
    <clipPath
       clipPathUnits="userSpaceOnUse"
       id="clipPath32">
      <path
         d="M 0,160.047 H 318.983 V 0 H 0 Z"
         transform="translate(-169.5723,-136.3617)"
         id="path32" />
    </clipPath>
    <clipPath
       clipPathUnits="userSpaceOnUse"
       id="clipPath33">
      <path
         d="M 0,160.047 H 318.983 V 0 H 0 Z"
         transform="translate(-173.8771,-120.5043)"
         id="path33" />
    </clipPath>
    <clipPath
       clipPathUnits="userSpaceOnUse"
       id="clipPath34">
      <path
         d="M 0,160.047 H 318.983 V 0 H 0 Z"
         transform="translate(-175.2972,-125.8834)"
         id="path34" />
    </clipPath>
    <clipPath
       clipPathUnits="userSpaceOnUse"
       id="clipPath35">
      <path
         d="M 0,160.047 H 318.983 V 0 H 0 Z"
         transform="translate(-201.77691,-133.0478)"
         id="path35" />
    </clipPath>
    <clipPath
       clipPathUnits="userSpaceOnUse"
       id="clipPath36">
      <path
         d="M 0,160.047 H 318.983 V 0 H 0 Z"
         transform="translate(-204.39021,-133.0864)"
         id="path36" />
    </clipPath>
    <clipPath
       clipPathUnits="userSpaceOnUse"
       id="clipPath37">
      <path
         d="M 0,160.047 H 318.983 V 0 H 0 Z"
         id="path37" />
    </clipPath>
    <clipPath
       clipPathUnits="userSpaceOnUse"
       id="clipPath38">
      <path
         d="M 0,160.047 H 318.983 V 0 H 0 Z"
         transform="translate(-214.72711,-135.9316)"
         id="path38" />
    </clipPath>
    <clipPath
       clipPathUnits="userSpaceOnUse"
       id="clipPath39">
      <path
         d="M 0,160.047 H 318.983 V 0 H 0 Z"
         transform="translate(-223.0201,-130.0762)"
         id="path39" />
    </clipPath>
    <clipPath
       clipPathUnits="userSpaceOnUse"
       id="clipPath40">
      <path
         d="M 0,160.047 H 318.983 V 0 H 0 Z"
         transform="translate(-231.39021,-130.0762)"
         id="path40" />
    </clipPath>
    <clipPath
       clipPathUnits="userSpaceOnUse"
       id="clipPath41">
      <path
         d="M 0,160.047 H 318.983 V 0 H 0 Z"
         transform="translate(-238.33161,-130.0762)"
         id="path41" />
    </clipPath>
    <clipPath
       clipPathUnits="userSpaceOnUse"
       id="clipPath42">
      <path
         d="M 0,160.047 H 318.983 V 0 H 0 Z"
         transform="translate(-243.24961,-131.9399)"
         id="path42" />
    </clipPath>
    <clipPath
       clipPathUnits="userSpaceOnUse"
       id="clipPath43">
      <path
         d="M 0,160.047 H 318.983 V 0 H 0 Z"
         transform="translate(-251.5084,-130.0762)"
         id="path43" />
    </clipPath>
    <clipPath
       clipPathUnits="userSpaceOnUse"
       id="clipPath44">
      <path
         d="M 0,160.047 H 318.983 V 0 H 0 Z"
         transform="translate(-256.10601,-130.0762)"
         id="path44" />
    </clipPath>
    <clipPath
       clipPathUnits="userSpaceOnUse"
       id="clipPath45">
      <path
         d="M 0,160.047 H 318.983 V 0 H 0 Z"
         transform="translate(-262.33651,-135.9316)"
         id="path45" />
    </clipPath>
    <clipPath
       clipPathUnits="userSpaceOnUse"
       id="clipPath46">
      <path
         d="M 0,160.047 H 318.983 V 0 H 0 Z"
         transform="translate(-199.6177,-122.3818)"
         id="path46" />
    </clipPath>
    <clipPath
       clipPathUnits="userSpaceOnUse"
       id="clipPath47">
      <path
         d="M 0,160.047 H 318.983 V 0 H 0 Z"
         transform="translate(-202.23691,-124.6089)"
         id="path47" />
    </clipPath>
    <clipPath
       clipPathUnits="userSpaceOnUse"
       id="clipPath48">
      <path
         d="M 0,160.047 H 318.983 V 0 H 0 Z"
         transform="translate(-210.98101,-118.3901)"
         id="path48" />
    </clipPath>
    <clipPath
       clipPathUnits="userSpaceOnUse"
       id="clipPath49">
      <path
         d="M 0,160.047 H 318.983 V 0 H 0 Z"
         transform="translate(-217.01811,-116.5263)"
         id="path49" />
    </clipPath>
    <clipPath
       clipPathUnits="userSpaceOnUse"
       id="clipPath50">
      <path
         d="M 0,160.047 H 318.983 V 0 H 0 Z"
         transform="translate(-228.39211,-116.5263)"
         id="path50" />
    </clipPath>
    <clipPath
       clipPathUnits="userSpaceOnUse"
       id="clipPath51">
      <path
         d="M 0,160.047 H 318.983 V 0 H 0 Z"
         transform="translate(-232.9195,-116.5263)"
         id="path51" />
    </clipPath>
    <clipPath
       clipPathUnits="userSpaceOnUse"
       id="clipPath52">
      <path
         d="M 0,160.047 H 318.983 V 0 H 0 Z"
         transform="translate(-235.4722,-119.5366)"
         id="path52" />
    </clipPath>
    <clipPath
       clipPathUnits="userSpaceOnUse"
       id="clipPath53">
      <path
         d="M 0,160.047 H 318.983 V 0 H 0 Z"
         transform="translate(-242.68411,-122.3818)"
         id="path53" />
    </clipPath>
    <clipPath
       clipPathUnits="userSpaceOnUse"
       id="clipPath54">
      <path
         d="M 0,160.047 H 318.983 V 0 H 0 Z"
         transform="translate(-253.0162,-118.3901)"
         id="path54" />
    </clipPath>
    <clipPath
       clipPathUnits="userSpaceOnUse"
       id="clipPath55">
      <path
         d="M 0,160.047 H 318.983 V 0 H 0 Z"
         transform="translate(-257.06301,-120.5952)"
         id="path55" />
    </clipPath>
    <clipPath
       clipPathUnits="userSpaceOnUse"
       id="clipPath56">
      <path
         d="M 0,160.047 H 318.983 V 0 H 0 Z"
         transform="translate(-267.5113,-116.5263)"
         id="path56" />
    </clipPath>
    <clipPath
       clipPathUnits="userSpaceOnUse"
       id="clipPath57">
      <path
         d="M 0,160.047 H 318.983 V 0 H 0 Z"
         transform="translate(-272.21931,-124.6089)"
         id="path57" />
    </clipPath>
    <clipPath
       clipPathUnits="userSpaceOnUse"
       id="clipPath58">
      <path
         d="M 0,160.047 H 318.983 V 0 H 0 Z"
         transform="translate(-285.69981,-116.5263)"
         id="path58" />
    </clipPath>
    <clipPath
       clipPathUnits="userSpaceOnUse"
       id="clipPath59">
      <path
         d="M 0,160.047 H 318.983 V 0 H 0 Z"
         id="path59" />
    </clipPath>
    <clipPath
       clipPathUnits="userSpaceOnUse"
       id="clipPath60">
      <path
         d="M 0,160.047 H 318.983 V 0 H 0 Z"
         transform="translate(-290.0503,-119.5366)"
         id="path60" />
    </clipPath>
    <clipPath
       clipPathUnits="userSpaceOnUse"
       id="clipPath61">
      <path
         d="M 0,160.047 H 318.983 V 0 H 0 Z"
         transform="translate(-302.63241,-116.5263)"
         id="path61" />
    </clipPath>
    <clipPath
       clipPathUnits="userSpaceOnUse"
       id="clipPath62">
      <path
         d="M 0,160.047 H 318.983 V 0 H 0 Z"
         transform="translate(-16.5298,-64.245504)"
         id="path62" />
    </clipPath>
    <clipPath
       clipPathUnits="userSpaceOnUse"
       id="clipPath63">
      <path
         d="M 0,160.047 H 318.983 V 0 H 0 Z"
         transform="translate(-27.825901,-80.599802)"
         id="path63" />
    </clipPath>
  </defs>
  <sodipodi:namedview
     id="namedview1"
     pagecolor="#ffffff"
     bordercolor="#000000"
     borderopacity="0.25"
     inkscape:showpageshadow="2"
     inkscape:pageopacity="0.0"
     inkscape:pagecheckerboard="0"
     inkscape:deskcolor="#d1d1d1">
    <inkscape:page
       x="0"
       y="0"
       inkscape:label="3"
       id="page1"
       width="425.31067"
       height="213.396"
       margin="0"
       bleed="0" />
  </sodipodi:namedview>
  <g
     id="g1"
     inkscape:groupmode="layer"
     inkscape:label="3">
    <g
       id="g2">
      <path
         d="M 0,0 H 318.983 V 160.047 H 0 Z"
         style="fill:#ffffff;fill-opacity:1;fill-rule:nonzero;stroke:none"
         transform="matrix(1.3333333,0,0,-1.3333333,0,213.396)"
         clip-path="url(#clipPath1)"
         id="path2" />
    </g>
    <path
       id="path3"
       d="M 1.6290156,0.00103594 V -10.850527 h 4.2304688 c 0.9521484,0 1.7636719,0.152344 2.4375,0.457032 0.6708984,0.298828 1.1865234,0.7324216 1.546875,1.3007809 0.3574216,0.5625 0.5390626,1.2392578 0.5390626,2.0273438 0,0.7822266 -0.181641,1.453125 -0.5390626,2.015625 -0.3603516,0.5625 -0.8759766,0.9960937 -1.546875,1.3007812 -0.6738281,0.2988282 -1.4853516,0.4453125 -2.4375,0.4453125 h -3.375 l 0.6914062,-0.7148437 v 4.01953124 z m 7.2539063,0 L 6.1290156,-3.9364641 H 7.7813594 L 10.570422,0.00103594 Z M 3.1758906,-3.8544328 2.4844844,-4.6161516 h 3.328125 c 0.9902344,0 1.7402344,-0.2138671 2.25,-0.6445312 0.515625,-0.4277344 0.7734375,-1.03125 0.7734375,-1.8046875 0,-0.7792969 -0.2578125,-1.3828125 -0.7734375,-1.8046875 -0.5097656,-0.421875 -1.2597656,-0.6328125 -2.25,-0.6328125 H 2.4844844 L 3.1758906,-10.276308 Z M 13.67882,-6.1747453 h 5.589844 v 1.3242187 H 13.67882 Z m 0.140625,4.828125 h 6.328125 v 1.34765624 h -7.875 V -10.850527 h 7.652344 v 1.3476567 h -6.105469 z m 11.501953,1.47656249 c -0.829101,0 -1.623046,-0.12597656 -2.378906,-0.375 -0.75,-0.2578125 -1.344726,-0.58886719 -1.78125,-0.99609379 l 0.574219,-1.2070312 c 0.413086,0.3603516 0.94043,0.6621094 1.582031,0.9023437 0.638672,0.234375 1.306641,0.3515625 2.003906,0.3515625 0.632813,0 1.142579,-0.070312 1.535157,-0.2109375 0.389648,-0.1464843 0.679687,-0.3457031 0.867187,-0.5976562 0.1875,-0.2578125 0.28125,-0.5449219 0.28125,-0.8671875 0,-0.3662109 -0.123047,-0.6621094 -0.363281,-0.890625 -0.243164,-0.234375 -0.55957,-0.4160156 -0.949219,-0.5507813 -0.392578,-0.140625 -0.820312,-0.2607421 -1.289062,-0.3632812 -0.462891,-0.1083984 -0.925782,-0.2285156 -1.394532,-0.3632813 -0.46875,-0.140625 -0.899414,-0.3193359 -1.289062,-0.5390625 -0.383789,-0.2167968 -0.697266,-0.5097656 -0.9375,-0.8789062 -0.234375,-0.3662109 -0.351563,-0.8378906 -0.351563,-1.4179688 0,-0.5625 0.143555,-1.078125 0.433594,-1.546875 0.295899,-0.46875 0.75293,-0.8437499 1.371094,-1.1249999 0.615234,-0.287109 1.397461,-0.433594 2.34375,-0.433594 0.632812,0 1.256836,0.08789 1.875,0.257813 0.624023,0.164062 1.163086,0.398437 1.617187,0.703125 l -0.515625,1.2421872 c -0.46289,-0.3105469 -0.955078,-0.5332031 -1.476562,-0.6679688 -0.515625,-0.140625 -1.016602,-0.2109375 -1.5,-0.2109375 -0.609375,0 -1.110352,0.079102 -1.5,0.234375 -0.392578,0.1494141 -0.679688,0.3574219 -0.867188,0.6210938 -0.18164,0.2578125 -0.269531,0.5478515 -0.269531,0.8671875 0,0.383789 0.120117,0.6884766 0.363281,0.9140625 0.249024,0.2285156 0.56543,0.4072266 0.949219,0.5390625 0.389649,0.1347656 0.814453,0.2548828 1.277344,0.3632812 0.46875,0.1113282 0.9375,0.2314454 1.40625,0.3632813 0.46875,0.1347656 0.893555,0.3105469 1.277344,0.5273437 0.389648,0.2197266 0.703125,0.5126954 0.9375,0.8789063 0.240234,0.3603516 0.363281,0.8203125 0.363281,1.3828125 0,0.5478516 -0.149414,1.0605469 -0.445313,1.5351562 -0.298828,0.46875004 -0.758789,0.84960941 -1.382812,1.13671879 -0.626953,0.28125 -1.415039,0.421875 -2.367188,0.421875 z M 31.186633,0.00103594 V -10.850527 h 4.230469 c 0.952148,0 1.763671,0.152344 2.4375,0.457032 0.670898,0.298828 1.186523,0.7324216 1.546875,1.3007809 0.357421,0.5625 0.539062,1.2392578 0.539062,2.0273438 0,0.7822266 -0.181641,1.453125 -0.539062,2.015625 -0.360352,0.5625 -0.875977,1.0019531 -1.546875,1.3125 -0.673829,0.3046875 -1.485352,0.4570312 -2.4375,0.4570312 h -3.375 l 0.691406,-0.7382812 v 4.01953124 z m 1.546875,-3.85546874 -0.691406,-0.7851563 h 3.328125 c 0.990234,0 1.740234,-0.2109375 2.25,-0.6328125 0.515625,-0.421875 0.773437,-1.0195312 0.773437,-1.7929687 0,-0.7792969 -0.257812,-1.3828125 -0.773437,-1.8046875 -0.509766,-0.421875 -1.259766,-0.6328125 -2.25,-0.6328125 h -3.328125 l 0.691406,-0.7734377 z m 13.989258,3.98437499 c -0.829102,0 -1.59961,-0.140625 -2.308594,-0.421875 -0.703125,-0.28125 -1.3125,-0.67089844 -1.828125,-1.17187499 -0.515625,-0.4980469 -0.919922,-1.0839844 -1.207031,-1.7578125 -0.290039,-0.6708984 -0.433594,-1.40625 -0.433594,-2.203125 0,-0.796875 0.143555,-1.5292969 0.433594,-2.203125 0.287109,-0.6708985 0.691406,-1.256836 1.207031,-1.7578125 0.515625,-0.4980469 1.125,-0.8906252 1.828125,-1.1718752 0.703125,-0.28125 1.470703,-0.421875 2.308594,-0.421875 0.826172,0 1.58789,0.137695 2.285156,0.410156 0.694336,0.275391 1.303711,0.6650395 1.828125,1.1718754 0.521484,0.5009766 0.925781,1.0869141 1.207031,1.7578125 0.28711,0.6738282 0.433594,1.4121094 0.433594,2.2148438 0,0.8056641 -0.146484,1.5439453 -0.433594,2.2148437 -0.28125,0.6738282 -0.685547,1.2597657 -1.207031,1.7578125 -0.524414,0.5009766 -1.133789,0.89062504 -1.828125,1.17187504 -0.697266,0.27539062 -1.458984,0.41015625 -2.285156,0.41015625 z m 0,-1.38281249 c 0.600586,0 1.154297,-0.099609 1.664062,-0.3046875 0.515625,-0.2109375 0.960938,-0.5039063 1.335938,-0.8789063 0.375,-0.3808593 0.667968,-0.8232421 0.878906,-1.3242187 0.216797,-0.5068359 0.328125,-1.0605469 0.328125,-1.6640625 0,-0.6005859 -0.111328,-1.1513672 -0.328125,-1.6523438 -0.210938,-0.5068359 -0.503906,-0.9492187 -0.878906,-1.3242187 -0.375,-0.3808594 -0.820313,-0.6738281 -1.335938,-0.8789063 -0.509765,-0.2109375 -1.063476,-0.3164062 -1.664062,-0.3164062 -0.609375,0 -1.171875,0.1054687 -1.6875,0.3164062 -0.509766,0.2050782 -0.955078,0.4980469 -1.335938,0.8789063 -0.383789,0.375 -0.679687,0.8173828 -0.890625,1.3242187 -0.210937,0.5009766 -0.316406,1.0517579 -0.316406,1.6523438 0,0.6035156 0.105469,1.1572266 0.316406,1.6640625 0.210938,0.5009766 0.506836,0.9433594 0.890625,1.3242187 0.38086,0.375 0.826172,0.6679688 1.335938,0.8789063 0.515625,0.2050781 1.078125,0.3046875 1.6875,0.3046875 z M 58.49718,-8.2958391 c 0.670898,0 1.259765,0.1289063 1.769531,0.3867188 0.515625,0.2578125 0.916992,0.6533203 1.207031,1.1835937 0.28711,0.5244141 0.433594,1.1894532 0.433594,1.9921875 V 0.00103594 H 60.419055 V -4.5575578 c 0,-0.796875 -0.196289,-1.3945313 -0.585938,-1.7929688 -0.383789,-0.4042968 -0.925781,-0.609375 -1.628906,-0.609375 -0.533203,0 -0.993164,0.1054688 -1.382813,0.3164063 -0.392578,0.2050781 -0.697265,0.5097656 -0.914062,0.9140625 -0.210938,0.3984375 -0.316406,0.8994141 -0.316406,1.5 V 0.00103594 H 54.102648 V -8.2138078 h 1.429688 v 2.2148437 l -0.234375,-0.5859375 c 0.272461,-0.5390625 0.685547,-0.9550781 1.242187,-1.2539062 0.5625,-0.3046875 1.212891,-0.4570313 1.957032,-0.4570313 z m 5.654297,8.29687504 V -10.850527 h 4.570312 c 1.154297,0 2.173828,0.228516 3.058594,0.679688 0.890625,0.4541015 1.576172,1.0898437 2.0625,1.9101562 0.492187,0.8144531 0.738281,1.7578125 0.738281,2.8359375 0,1.078125 -0.246094,2.0273437 -0.738281,2.8476562 -0.486328,0.8144532 -1.171875,1.4472657 -2.0625,1.89843754 -0.884766,0.45410156 -1.904297,0.6796875 -3.058594,0.6796875 z m 1.546875,-1.34765624 h 2.929687 c 0.896484,0 1.675781,-0.1669922 2.332031,-0.5039063 0.65625,-0.3427734 1.163086,-0.8232421 1.523438,-1.4414062 0.366211,-0.6152344 0.550781,-1.3271484 0.550781,-2.1328125 0,-0.8203125 -0.18457,-1.5351563 -0.550781,-2.1445313 -0.360352,-0.609375 -0.867188,-1.0810547 -1.523438,-1.4179687 -0.65625,-0.3427735 -1.435547,-0.515625 -2.332031,-0.515625 h -2.929687 z m 0,0"
       style="fill:#231f20;fill-opacity:1;fill-rule:nonzero;stroke:none"
       aria-label="RESPOnD"
       transform="matrix(1.3333333,0,0,1.3333333,19.632667,169.6744)" />
    <g
       id="g123">
      <path
         d="M 0,0 C 1.53,0 2.556,-0.967 2.948,-2.457 4.301,-2.582 5.638,-2.714 6.957,-2.855 6.402,0.541 4.173,3.319 0,3.319 c -3.331,0 -5.867,-2.115 -6.808,-5.035 1.338,-0.082 2.663,-0.17 3.976,-0.266 C -2.316,-0.754 -1.343,0 0,0"
         style="fill:#231f20;fill-opacity:1;fill-rule:nonzero;stroke:none"
         transform="matrix(1.3333333,0,0,-1.3333333,131.22493,42.640267)"
         clip-path="url(#clipPath4)"
         id="path64" />
      <path
         d="m 0,0 c 0,-4.462 3.238,-7.537 7.618,-7.537 2.64,0 4.598,1.035 5.959,2.721 l -2.367,2.095 c -1.143,-1.061 -2.15,-1.496 -3.537,-1.496 -1.85,0 -3.157,0.979 -3.565,2.857 h 10.149 c 0.027,0.381 0.054,0.761 0.054,1.088 0,0.593 -0.051,1.175 -0.144,1.743 -1.319,0.141 -2.655,0.273 -4.009,0.398 0.054,-0.205 0.097,-0.421 0.127,-0.645 H 4.054 C 4.124,1.631 4.235,2.005 4.378,2.344 3.065,2.44 1.739,2.528 0.402,2.61 0.145,1.809 0,0.951 0,0.055 Z"
         style="fill:#231f20;fill-opacity:1;fill-rule:nonzero;stroke:none"
         transform="matrix(1.3333333,0,0,-1.3333333,121.61147,48.4084)"
         clip-path="url(#clipPath5)"
         id="path65" />
      <path
         d="m 0,0 h -4.19 v -12.875 c 1.361,0.259 2.76,0.507 4.19,0.743 z"
         style="fill:#231f20;fill-opacity:1;fill-rule:nonzero;stroke:none"
         transform="matrix(1.3333333,0,0,-1.3333333,27.378533,32.627733)"
         clip-path="url(#clipPath6)"
         id="path66" />
      <path
         d="M 0,0 H 3.428 V 3.537 H 0 V 7.265 H -4.136 V 3.537 H -5.877 V 0 h 1.741 v -1.602 c 1.365,0.106 2.743,0.204 4.136,0.294 z"
         style="fill:#231f20;fill-opacity:1;fill-rule:nonzero;stroke:none"
         transform="matrix(1.3333333,0,0,-1.3333333,61.529733,43.293067)"
         clip-path="url(#clipPath7)"
         id="path67" />
      <path
         d="M 0,0 C 1.015,0 1.807,-0.428 2.34,-1.149 3.716,-1.12 5.099,-1.098 6.49,-1.084 5.53,1.455 3.417,3.319 0,3.319 c -3.23,0 -5.716,-1.988 -6.721,-4.771 1.411,0.065 2.833,0.121 4.265,0.17 C -1.899,-0.473 -1.065,0 0,0"
         style="fill:#231f20;fill-opacity:1;fill-rule:nonzero;stroke:none"
         transform="matrix(1.3333333,0,0,-1.3333333,78.835333,42.640267)"
         clip-path="url(#clipPath8)"
         id="path68" />
      <path
         d="M 0,0 C 0.372,0.08 0.769,0.125 1.195,0.125 H 1.412 V 4.451 C -1.037,4.56 -2.397,3.254 -3.24,1.24 V 4.179 H -7.376 V 0.067 L -7.15,0.068 C -4.748,0.068 -2.364,0.044 0,0"
         style="fill:#231f20;fill-opacity:1;fill-rule:nonzero;stroke:none"
         transform="matrix(1.3333333,0,0,-1.3333333,102.23987,44.148933)"
         clip-path="url(#clipPath9)"
         id="path69" />
      <path
         d="M 0,0 H 0.218 V 4.326 C -2.231,4.434 -3.592,3.129 -4.435,1.116 V 4.054 H -8.57 v -4.275 c 2.15,-0.063 4.28,-0.144 6.385,-0.243 C -1.565,-0.155 -0.832,0 0,0"
         style="fill:#231f20;fill-opacity:1;fill-rule:nonzero;stroke:none"
         transform="matrix(1.3333333,0,0,-1.3333333,118.99787,43.982267)"
         clip-path="url(#clipPath10)"
         id="path70" />
      <path
         d="M 0,0 V 0.055 C 0,2.04 1.523,3.429 3.537,3.429 5.55,3.429 7.102,2.04 7.102,0.055 V 0 c 0,-0.383 -0.06,-0.743 -0.167,-1.076 1.45,-0.239 2.868,-0.49 4.247,-0.752 V 6.584 H 7.047 V 4.68 C 5.931,5.904 4.598,6.857 2.34,6.857 c -3.241,0 -6.269,-2.303 -6.457,-6.401 1.395,-0.16 2.769,-0.329 4.119,-0.506 z"
         style="fill:#231f20;fill-opacity:1;fill-rule:nonzero;stroke:none"
         transform="matrix(1.3333333,0,0,-1.3333333,148.71267,47.3564)"
         clip-path="url(#clipPath11)"
         id="path71" />
      <path
         d="M 0,0 C 0.274,0.13 0.879,0.258 1.177,0.258 1.475,0.258 2.081,0.13 2.354,0 3.407,-0.501 3.883,-1.249 4.019,-2.293 5.33,-2.155 6.659,-2.025 8.003,-1.903 7.54,0.218 6.268,2.008 4.306,3.005 3.405,3.463 2.36,3.839 1.177,3.839 c -1.183,0 -2.228,-0.376 -3.129,-0.834 -2.446,-1.242 -3.821,-3.717 -3.89,-6.531 1.351,0.198 2.729,0.387 4.13,0.566 C -1.704,-1.548 -1.266,-0.602 0,0"
         style="fill:#231f20;fill-opacity:1;fill-rule:nonzero;stroke:none"
         transform="matrix(1.3333333,0,0,-1.3333333,40.1068,43.3316)"
         clip-path="url(#clipPath12)"
         id="path72" />
      <path
         d="M 0,0 V 6.914 C -1.43,6.677 -2.829,6.429 -4.19,6.17 V 0 Z"
         style="fill:#231f20;fill-opacity:1;fill-rule:nonzero;stroke:none"
         transform="matrix(1.3333333,0,0,-1.3333333,27.378533,58.021733)"
         clip-path="url(#clipPath13)"
         id="path73" />
      <path
         d="M 0,0 C 1.387,0 2.394,0.326 3.265,0.844 V 4.163 C 2.666,3.837 1.986,3.646 1.224,3.646 0.3,3.646 -0.109,4.108 -0.109,5.06 V 9.983 C -1.501,9.894 -2.88,9.795 -4.245,9.689 V 4.381 C -4.245,1.007 -2.53,0 0,0"
         style="fill:#231f20;fill-opacity:1;fill-rule:nonzero;stroke:none"
         transform="matrix(1.3333333,0,0,-1.3333333,61.674933,58.348267)"
         clip-path="url(#clipPath14)"
         id="path74" />
      <path
         d="m 0,0 c 0,-4.462 3.238,-7.537 7.618,-7.537 2.64,0 4.598,1.035 5.959,2.721 l -2.367,2.095 c -1.143,-1.061 -2.15,-1.496 -3.537,-1.496 -1.85,0 -3.157,0.979 -3.565,2.857 h 10.149 c 0.027,0.381 0.055,0.761 0.055,1.088 0,1.234 -0.204,2.434 -0.612,3.514 C 12.31,3.228 10.926,3.206 9.55,3.177 9.932,2.661 10.182,1.996 10.285,1.224 H 4.054 c 0.124,0.711 0.361,1.327 0.7,1.82 C 3.322,2.995 1.901,2.939 0.489,2.874 0.174,2 0,1.049 0,0.055 Z"
         style="fill:#231f20;fill-opacity:1;fill-rule:nonzero;stroke:none"
         transform="matrix(1.3333333,0,0,-1.3333333,69.221867,48.4084)"
         clip-path="url(#clipPath15)"
         id="path75" />
      <path
         d="m 0,0 v 5.387 c 0,2.944 1.208,4.58 3.24,5.018 -2.364,0.044 -4.748,0.067 -7.149,0.067 L -4.136,10.471 V 0 Z"
         style="fill:#231f20;fill-opacity:1;fill-rule:nonzero;stroke:none"
         transform="matrix(1.3333333,0,0,-1.3333333,97.919333,58.021733)"
         clip-path="url(#clipPath16)"
         id="path76" />
      <path
         d="m 0,0 v 5.387 c 0,2.428 0.822,3.967 2.249,4.679 -2.104,0.099 -4.234,0.179 -6.385,0.243 L -4.136,0 Z"
         style="fill:#231f20;fill-opacity:1;fill-rule:nonzero;stroke:none"
         transform="matrix(1.3333333,0,0,-1.3333333,113.08453,58.021733)"
         clip-path="url(#clipPath17)"
         id="path77" />
      <path
         d="m 0,0 c 0,-4.326 3.074,-6.802 6.476,-6.802 2.203,0 3.536,0.898 4.761,2.367 v -0.707 c 0,-2.612 -1.333,-3.973 -4.163,-3.973 -1.932,0 -3.428,0.49 -4.925,1.334 l -1.415,-3.102 c 1.851,-0.98 4.082,-1.524 6.449,-1.524 2.829,0 4.924,0.599 6.285,1.959 1.224,1.225 1.85,3.129 1.85,5.741 v 2.879 c -1.38,0.262 -2.797,0.513 -4.248,0.752 -0.45,-1.393 -1.772,-2.298 -3.397,-2.298 -1.997,0 -3.509,1.338 -3.535,3.324 C 2.787,0.127 1.413,0.296 0.018,0.456 0.012,0.322 0,0.192 0,0.055 Z"
         style="fill:#231f20;fill-opacity:1;fill-rule:nonzero;stroke:none"
         transform="matrix(1.3333333,0,0,-1.3333333,143.1984,47.3564)"
         clip-path="url(#clipPath18)"
         id="path78" />
      <path
         d="m 0,0 v -1.419 -6.065 -0.534 h 4.136 v 7.21 0.055 c 0,0.635 -0.07,1.252 -0.2,1.845 C 2.592,0.969 1.262,0.841 -0.048,0.703 -0.019,0.481 0,0.25 0,0"
         style="fill:#231f20;fill-opacity:1;fill-rule:nonzero;stroke:none"
         transform="matrix(1.3333333,0,0,-1.3333333,45.53,47.325067)"
         clip-path="url(#clipPath19)"
         id="path79" />
      <path
         d="m 0,0 v -7.21 h 4.136 v 0.533 6.065 1.42 L 4.137,0.843 C 2.736,0.664 1.358,0.475 0.006,0.277 L 0,0.055 Z"
         style="fill:#231f20;fill-opacity:1;fill-rule:nonzero;stroke:none"
         transform="matrix(1.3333333,0,0,-1.3333333,32.308533,48.402)"
         clip-path="url(#clipPath20)"
         id="path80" />
      <path
         d="M 138.537,144.228 H 188.62 V 110.49 h -50.083 z"
         style="fill:#ffffff;fill-opacity:1;fill-rule:nonzero;stroke:none"
         transform="matrix(1.3333333,0,0,-1.3333333,0,213.396)"
         clip-path="url(#clipPath21)"
         id="path81" />
      <path
         d="M 188.094,111.015 H 139.06 v 32.688 h 49.034 z m 1.051,33.738 h -1.051 -49.034 -1.05 v -1.05 -32.688 -1.05 h 1.05 49.034 1.051 v 1.05 32.688 z"
         style="fill:#231f20;fill-opacity:1;fill-rule:nonzero;stroke:none"
         transform="matrix(1.3333333,0,0,-1.3333333,0,213.396)"
         clip-path="url(#clipPath22)"
         id="path82" />
      <path
         d="M 0,0 0.396,1.238 0.793,10e-4 h 1.294 l -1.05,-0.754 0.394,-1.22 -1.035,0.755 -1.034,-0.755 0.393,1.22 -1.05,0.754 z"
         style="fill:#231f20;fill-opacity:1;fill-rule:nonzero;stroke:none"
         transform="matrix(1.3333333,0,0,-1.3333333,229.92733,35.788667)"
         clip-path="url(#clipPath23)"
         id="path83" />
      <path
         d="M 0,0 0.397,1.238 0.792,0.003 h 1.297 l -1.052,-0.756 0.394,-1.221 -1.034,0.755 -1.036,-0.755 0.394,1.221 -1.05,0.756 z"
         style="fill:#231f20;fill-opacity:1;fill-rule:nonzero;stroke:none"
         transform="matrix(1.3333333,0,0,-1.3333333,217.56187,28.655333)"
         clip-path="url(#clipPath24)"
         id="path84" />
      <path
         d="M 0,0 1.298,-0.003 1.692,1.237 2.089,0 h 1.295 l -1.05,-0.755 0.394,-1.221 -1.036,0.754 -1.034,-0.754 0.393,1.221 z"
         style="fill:#231f20;fill-opacity:1;fill-rule:nonzero;stroke:none"
         transform="matrix(1.3333333,0,0,-1.3333333,201.55413,42.9364)"
         clip-path="url(#clipPath25)"
         id="path85" />
      <path
         d="M 0,0 -1.035,0.757 -2.069,0 -1.674,1.221 -2.725,1.977 -1.431,1.975 -1.035,3.214 -0.638,1.977 H 0.657 L -0.394,1.221 Z"
         style="fill:#231f20;fill-opacity:1;fill-rule:nonzero;stroke:none"
         transform="matrix(1.3333333,0,0,-1.3333333,207.1068,52.7236)"
         clip-path="url(#clipPath26)"
         id="path86" />
      <path
         d="M 0,0 0.394,-1.219 -0.641,-0.465 -1.674,-1.219 -1.28,0 -2.331,0.755 h 1.294 l 0.396,1.238 0.397,-1.238 h 1.295 z"
         style="fill:#231f20;fill-opacity:1;fill-rule:nonzero;stroke:none"
         transform="matrix(1.3333333,0,0,-1.3333333,206.58107,36.8148)"
         clip-path="url(#clipPath27)"
         id="path87" />
      <path
         d="M 0,0 0.396,1.238 0.793,10e-4 h 1.295 l -1.05,-0.756 0.393,-1.22 -1.033,0.756 -1.034,-0.756 0.392,1.22 -1.05,0.756 z"
         style="fill:#231f20;fill-opacity:1;fill-rule:nonzero;stroke:none"
         transform="matrix(1.3333333,0,0,-1.3333333,210.42133,30.572933)"
         clip-path="url(#clipPath28)"
         id="path88" />
      <path
         d="M 0,0 -1.035,0.755 -2.068,0 l 0.393,1.222 -1.05,0.754 1.295,-10e-4 0.395,1.237 0.397,-1.236 h 1.295 l -1.05,-0.754 z"
         style="fill:#231f20;fill-opacity:1;fill-rule:nonzero;stroke:none"
         transform="matrix(1.3333333,0,0,-1.3333333,212.34107,57.957733)"
         clip-path="url(#clipPath29)"
         id="path89" />
      <path
         d="M 0,0 -1.034,0.754 -2.069,0 -1.677,1.221 -2.728,1.976 -1.431,1.975 -1.035,3.213 -0.638,1.976 H 0.657 L -0.395,1.221 Z"
         style="fill:#231f20;fill-opacity:1;fill-rule:nonzero;stroke:none"
         transform="matrix(1.3333333,0,0,-1.3333333,219.47133,59.852533)"
         clip-path="url(#clipPath30)"
         id="path90" />
      <path
         d="M 0,0 -1.036,0.755 -2.07,0 l 0.393,1.222 -1.05,0.754 1.295,-10e-4 0.396,1.237 0.397,-1.236 H 0.657 L -0.396,1.222 Z"
         style="fill:#231f20;fill-opacity:1;fill-rule:nonzero;stroke:none"
         transform="matrix(1.3333333,0,0,-1.3333333,226.60173,57.957733)"
         clip-path="url(#clipPath31)"
         id="path91" />
      <path
         d="M 0,0 0.393,-1.221 -0.639,-0.463 -1.676,-1.221 -1.282,0 -2.331,0.757 -1.037,0.755 -0.641,1.993 -0.245,0.757 h 1.296 z"
         style="fill:#231f20;fill-opacity:1;fill-rule:nonzero;stroke:none"
         transform="matrix(1.3333333,0,0,-1.3333333,226.0964,31.5804)"
         clip-path="url(#clipPath32)"
         id="path92" />
      <path
         d="M 0,0 -1.035,0.757 -2.07,0 l 0.393,1.221 -1.05,0.756 1.295,-0.002 0.397,1.239 0.397,-1.237 h 1.294 l -1.05,-0.756 z"
         style="fill:#231f20;fill-opacity:1;fill-rule:nonzero;stroke:none"
         transform="matrix(1.3333333,0,0,-1.3333333,231.83613,52.7236)"
         clip-path="url(#clipPath33)"
         id="path93" />
      <path
         d="M 0,0 -1.035,0.757 -2.067,0 l 0.392,1.221 -1.05,0.754 1.295,-0.002 0.395,1.24 0.397,-1.238 H 0.658 L -0.394,1.221 Z"
         style="fill:#231f20;fill-opacity:1;fill-rule:nonzero;stroke:none"
         transform="matrix(1.3333333,0,0,-1.3333333,233.7296,45.551467)"
         clip-path="url(#clipPath34)"
         id="path94" />
      <path
         d="M 0,0 1.582,-0.501 C 1.34,-1.384 0.937,-2.039 0.372,-2.467 c -0.564,-0.429 -1.28,-0.642 -2.147,-0.642 -1.074,0 -1.956,0.366 -2.647,1.099 -0.691,0.734 -1.036,1.736 -1.036,3.008 0,1.345 0.347,2.39 1.042,3.134 0.694,0.745 1.607,1.117 2.74,1.117 0.989,0 1.792,-0.292 2.409,-0.877 C 1.101,4.027 1.376,3.531 1.561,2.884 L -0.055,2.498 c -0.095,0.419 -0.296,0.75 -0.598,0.992 -0.304,0.243 -0.672,0.364 -1.106,0.364 -0.599,0 -1.085,-0.215 -1.458,-0.645 -0.373,-0.43 -0.559,-1.126 -0.559,-2.09 0,-1.021 0.183,-1.749 0.55,-2.183 0.369,-0.433 0.846,-0.651 1.434,-0.651 0.434,0 0.807,0.138 1.119,0.414 C -0.36,-1.025 -0.136,-0.592 0,0"
         style="fill:#231f20;fill-opacity:1;fill-rule:nonzero;stroke:none"
         transform="matrix(1.3333333,0,0,-1.3333333,269.03587,35.998933)"
         clip-path="url(#clipPath35)"
         id="path95" />
      <path
         d="m 0,0 c 0,0.515 0.127,1.013 0.381,1.494 0.253,0.482 0.612,0.849 1.077,1.103 0.465,0.254 0.984,0.381 1.558,0.381 0.885,0 1.612,-0.288 2.177,-0.863 0.567,-0.576 0.85,-1.303 0.85,-2.181 0,-0.886 -0.286,-1.62 -0.858,-2.202 -0.571,-0.583 -1.29,-0.875 -2.159,-0.875 -0.536,0 -1.047,0.121 -1.535,0.364 -0.487,0.243 -0.857,0.598 -1.11,1.067 C 0.127,-1.243 0,-0.672 0,0 m 1.588,-0.083 c 0,-0.581 0.138,-1.025 0.413,-1.334 0.276,-0.309 0.616,-0.463 1.02,-0.463 0.405,0 0.744,0.154 1.018,0.463 0.273,0.309 0.41,0.757 0.41,1.345 0,0.574 -0.137,1.015 -0.41,1.323 C 3.765,1.561 3.426,1.715 3.021,1.715 2.617,1.715 2.277,1.561 2.001,1.251 1.726,0.943 1.588,0.498 1.588,-0.083"
         style="fill:#231f20;fill-opacity:1;fill-rule:nonzero;stroke:none"
         transform="matrix(1.3333333,0,0,-1.3333333,272.52027,35.947467)"
         clip-path="url(#clipPath36)"
         id="path96" />
      <path
         d="m 211.469,133.781 h 3.044 v -1.549 h -3.044 z"
         style="fill:#231f20;fill-opacity:1;fill-rule:nonzero;stroke:none"
         transform="matrix(1.3333333,0,0,-1.3333333,0,213.396)"
         clip-path="url(#clipPath37)"
         id="path97" />
      <path
         d="m 0,0 h 0.86 v 0.441 c 0,0.493 0.053,0.86 0.158,1.103 0.104,0.242 0.297,0.44 0.579,0.592 0.281,0.153 0.636,0.229 1.066,0.229 0.441,0 0.873,-0.066 1.296,-0.198 L 3.75,1.086 C 3.503,1.145 3.267,1.174 3.038,1.174 2.815,1.174 2.653,1.122 2.556,1.017 2.459,0.912 2.41,0.711 2.41,0.414 V 0 H 3.567 V -1.219 H 2.41 V -5.855 H 0.86 v 4.636 H 0 Z"
         style="fill:#231f20;fill-opacity:1;fill-rule:nonzero;stroke:none"
         transform="matrix(1.3333333,0,0,-1.3333333,286.3028,32.153867)"
         clip-path="url(#clipPath38)"
         id="path98" />
      <path
         d="M 0,0 V 0.876 C -0.213,0.564 -0.493,0.318 -0.841,0.138 c -0.346,-0.18 -0.714,-0.27 -1.099,-0.27 -0.394,0 -0.747,0.086 -1.059,0.259 -0.313,0.172 -0.538,0.415 -0.678,0.727 -0.139,0.313 -0.21,0.745 -0.21,1.296 v 3.705 h 1.55 V 3.164 c 0,-0.823 0.028,-1.327 0.085,-1.513 0.057,-0.185 0.161,-0.333 0.312,-0.441 0.15,-0.108 0.341,-0.163 0.573,-0.163 0.264,0 0.502,0.073 0.711,0.218 0.21,0.146 0.353,0.326 0.43,0.541 0.078,0.214 0.116,0.741 0.116,1.579 v 2.47 H 1.439 V 0 Z"
         style="fill:#231f20;fill-opacity:1;fill-rule:nonzero;stroke:none"
         transform="matrix(1.3333333,0,0,-1.3333333,297.36013,39.961067)"
         clip-path="url(#clipPath39)"
         id="path99" />
      <path
         d="m 0,0 h -1.55 v 2.988 c 0,0.633 -0.033,1.041 -0.098,1.227 C -1.715,4.4 -1.822,4.545 -1.972,4.648 -2.12,4.75 -2.3,4.802 -2.509,4.802 -2.777,4.802 -3.018,4.728 -3.232,4.581 -3.444,4.434 -3.591,4.24 -3.67,3.997 -3.748,3.755 -3.788,3.306 -3.788,2.652 V 0 h -1.549 v 5.855 h 1.439 v -0.86 c 0.51,0.662 1.154,0.993 1.929,0.993 0.342,0 0.654,-0.062 0.938,-0.185 C -0.748,5.68 -0.534,5.522 -0.389,5.331 -0.244,5.14 -0.143,4.923 -0.086,4.681 -0.028,4.438 0,4.091 0,3.639 Z"
         style="fill:#231f20;fill-opacity:1;fill-rule:nonzero;stroke:none"
         transform="matrix(1.3333333,0,0,-1.3333333,308.52027,39.961067)"
         clip-path="url(#clipPath40)"
         id="path100" />
      <path
         d="M 0,0 H -1.44 V 0.86 C -1.678,0.525 -1.96,0.276 -2.285,0.113 -2.61,-0.05 -2.938,-0.132 -3.269,-0.132 c -0.673,0 -1.25,0.271 -1.729,0.813 -0.479,0.542 -0.72,1.298 -0.72,2.269 0,0.992 0.234,1.747 0.7,2.263 0.467,0.516 1.057,0.775 1.771,0.775 0.653,0 1.22,-0.272 1.697,-0.816 v 2.91 H 0 Z m -4.135,3.055 c 0,-0.625 0.086,-1.078 0.259,-1.357 0.25,-0.404 0.599,-0.606 1.048,-0.606 0.356,0 0.659,0.151 0.909,0.454 0.25,0.304 0.375,0.757 0.375,1.36 0,0.672 -0.121,1.156 -0.364,1.452 C -2.15,4.654 -2.461,4.802 -2.84,4.802 -3.207,4.802 -3.515,4.656 -3.763,4.364 -4.011,4.072 -4.135,3.635 -4.135,3.055"
         style="fill:#231f20;fill-opacity:1;fill-rule:nonzero;stroke:none"
         transform="matrix(1.3333333,0,0,-1.3333333,317.77547,39.961067)"
         clip-path="url(#clipPath41)"
         id="path101" />
      <path
         d="M 0,0 1.544,-0.259 C 1.346,-0.825 1.032,-1.256 0.603,-1.552 0.176,-1.848 -0.36,-1.996 -1.003,-1.996 c -1.019,0 -1.772,0.332 -2.261,0.998 -0.386,0.533 -0.579,1.206 -0.579,2.018 0,0.97 0.254,1.73 0.761,2.28 0.508,0.549 1.148,0.824 1.924,0.824 0.872,0 1.558,-0.288 2.062,-0.863 C 1.408,2.686 1.648,1.805 1.627,0.617 h -3.882 c 0.011,-0.459 0.136,-0.817 0.375,-1.072 0.239,-0.255 0.536,-0.383 0.894,-0.383 0.242,0 0.446,0.066 0.611,0.198 C -0.209,-0.507 -0.085,-0.294 0,0 M 0.088,1.566 C 0.077,2.014 -0.038,2.355 -0.259,2.588 -0.48,2.822 -0.748,2.939 -1.065,2.939 -1.402,2.939 -1.682,2.816 -1.902,2.569 -2.123,2.323 -2.232,1.988 -2.228,1.566 Z"
         style="fill:#231f20;fill-opacity:1;fill-rule:nonzero;stroke:none"
         transform="matrix(1.3333333,0,0,-1.3333333,324.3328,37.476133)"
         clip-path="url(#clipPath42)"
         id="path102" />
      <path
         d="M 0,0 H -1.44 V 0.86 C -1.678,0.525 -1.96,0.276 -2.285,0.113 -2.61,-0.05 -2.939,-0.132 -3.27,-0.132 c -0.672,0 -1.249,0.271 -1.728,0.813 -0.48,0.542 -0.72,1.298 -0.72,2.269 0,0.992 0.234,1.747 0.7,2.263 0.467,0.516 1.057,0.775 1.771,0.775 0.653,0 1.22,-0.272 1.697,-0.816 v 2.91 H 0 Z m -4.135,3.055 c 0,-0.625 0.086,-1.078 0.259,-1.357 0.25,-0.404 0.599,-0.606 1.048,-0.606 0.356,0 0.659,0.151 0.909,0.454 0.25,0.304 0.375,0.757 0.375,1.36 0,0.672 -0.121,1.156 -0.364,1.452 C -2.15,4.654 -2.461,4.802 -2.84,4.802 -3.207,4.802 -3.515,4.656 -3.763,4.364 -4.011,4.072 -4.135,3.635 -4.135,3.055"
         style="fill:#231f20;fill-opacity:1;fill-rule:nonzero;stroke:none"
         transform="matrix(1.3333333,0,0,-1.3333333,335.34453,39.961067)"
         clip-path="url(#clipPath43)"
         id="path103" />
      <path
         d="m 0,0 v 8.082 h 1.55 v -2.91 c 0.477,0.544 1.044,0.816 1.698,0.816 0.713,0 1.303,-0.259 1.77,-0.775 0.466,-0.516 0.7,-1.258 0.7,-2.225 0,-1 -0.239,-1.77 -0.714,-2.31 -0.477,-0.54 -1.055,-0.81 -1.735,-0.81 -0.333,0 -0.664,0.083 -0.989,0.251 C 1.955,0.286 1.675,0.533 1.44,0.86 V 0 Z M 1.538,3.055 C 1.538,2.448 1.634,1.999 1.825,1.709 2.094,1.297 2.45,1.092 2.894,1.092 3.236,1.092 3.528,1.238 3.769,1.53 4.01,1.822 4.13,2.283 4.13,2.911 4.13,3.58 4.009,4.062 3.766,4.358 3.523,4.654 3.213,4.802 2.834,4.802 2.463,4.802 2.154,4.658 1.908,4.37 1.661,4.081 1.538,3.642 1.538,3.055"
         style="fill:#231f20;fill-opacity:1;fill-rule:nonzero;stroke:none"
         transform="matrix(1.3333333,0,0,-1.3333333,341.47467,39.961067)"
         clip-path="url(#clipPath44)"
         id="path104" />
      <path
         d="M 0,0 H 1.648 L 3.049,-4.157 4.416,0 H 6.021 L 3.953,-5.635 3.584,-6.655 C 3.448,-6.997 3.318,-7.258 3.195,-7.438 3.072,-7.618 2.931,-7.764 2.771,-7.876 2.61,-7.988 2.414,-8.076 2.181,-8.138 1.947,-8.201 1.684,-8.232 1.39,-8.232 c -0.298,0 -0.59,0.031 -0.877,0.094 l -0.138,1.213 c 0.242,-0.048 0.461,-0.072 0.656,-0.072 0.361,0 0.626,0.106 0.799,0.317 0.173,0.212 0.306,0.481 0.398,0.808 z"
         style="fill:#231f20;fill-opacity:1;fill-rule:nonzero;stroke:none"
         transform="matrix(1.3333333,0,0,-1.3333333,349.782,32.153867)"
         clip-path="url(#clipPath45)"
         id="path105" />
      <path
         d="m 0,0 v -1.235 h -1.059 v -2.36 c 0,-0.478 0.011,-0.756 0.031,-0.835 l 0.138,-0.196 c 0.072,-0.051 0.159,-0.077 0.262,-0.077 0.144,0 0.351,0.05 0.623,0.149 l 0.132,-1.202 c -0.36,-0.155 -0.768,-0.232 -1.224,-0.232 -0.279,0 -0.531,0.047 -0.756,0.141 -0.223,0.094 -0.388,0.215 -0.493,0.364 -0.104,0.148 -0.176,0.35 -0.217,0.604 -0.034,0.179 -0.05,0.544 -0.05,1.091 v 2.553 H -3.324 V 0 h 0.711 v 1.163 l 1.554,0.904 V 0 Z"
         style="fill:#231f20;fill-opacity:1;fill-rule:nonzero;stroke:none"
         transform="matrix(1.3333333,0,0,-1.3333333,266.15693,50.220267)"
         clip-path="url(#clipPath46)"
         id="path106" />
      <path
         d="m 0,0 v -2.972 c 0.5,0.585 1.097,0.877 1.792,0.877 0.356,0 0.678,-0.066 0.965,-0.198 0.286,-0.133 0.502,-0.302 0.647,-0.508 0.146,-0.205 0.244,-0.433 0.298,-0.683 0.053,-0.25 0.08,-0.638 0.08,-1.163 v -3.436 h -1.55 v 3.094 c 0,0.614 -0.029,1.003 -0.088,1.168 C 2.086,-3.655 1.981,-3.524 1.833,-3.426 1.684,-3.329 1.497,-3.28 1.273,-3.28 1.016,-3.28 0.786,-3.343 0.584,-3.468 0.382,-3.593 0.234,-3.781 0.141,-4.033 0.047,-4.285 0,-4.657 0,-5.149 V -8.083 H -1.55 V 0 Z"
         style="fill:#231f20;fill-opacity:1;fill-rule:nonzero;stroke:none"
         transform="matrix(1.3333333,0,0,-1.3333333,269.6492,47.2508)"
         clip-path="url(#clipPath47)"
         id="path107" />
      <path
         d="M 0,0 1.544,-0.259 C 1.346,-0.825 1.032,-1.256 0.604,-1.552 0.176,-1.848 -0.36,-1.996 -1.003,-1.996 c -1.018,0 -1.772,0.332 -2.261,0.998 -0.385,0.533 -0.579,1.206 -0.579,2.018 0,0.97 0.254,1.73 0.761,2.28 0.508,0.549 1.148,0.824 1.924,0.824 0.872,0 1.558,-0.288 2.062,-0.863 C 1.408,2.686 1.648,1.805 1.627,0.617 h -3.882 c 0.011,-0.459 0.136,-0.817 0.375,-1.072 0.239,-0.255 0.536,-0.383 0.894,-0.383 0.242,0 0.446,0.066 0.611,0.198 0.166,0.133 0.29,0.346 0.375,0.64 m 0.088,1.565 c -0.011,0.449 -0.126,0.79 -0.347,1.023 -0.22,0.234 -0.489,0.351 -0.805,0.351 -0.338,0 -0.618,-0.124 -0.838,-0.37 C -2.123,2.323 -2.231,1.988 -2.227,1.565 Z"
         style="fill:#231f20;fill-opacity:1;fill-rule:nonzero;stroke:none"
         transform="matrix(1.3333333,0,0,-1.3333333,281.308,55.542533)"
         clip-path="url(#clipPath48)"
         id="path108" />
      <path
         d="M 0,0 V 8.083 H 5.993 V 6.715 H 1.632 V 4.923 H 5.69 V 3.562 H 1.632 v -2.2 H 6.147 V 0 Z"
         style="fill:#231f20;fill-opacity:1;fill-rule:nonzero;stroke:none"
         transform="matrix(1.3333333,0,0,-1.3333333,289.35747,58.0276)"
         clip-path="url(#clipPath49)"
         id="path109" />
      <path
         d="M 0,0 V 0.877 C -0.213,0.564 -0.493,0.318 -0.841,0.138 c -0.346,-0.18 -0.714,-0.27 -1.099,-0.27 -0.394,0 -0.746,0.086 -1.059,0.259 -0.312,0.172 -0.538,0.415 -0.678,0.728 -0.139,0.312 -0.21,0.744 -0.21,1.295 v 3.706 h 1.55 V 3.165 c 0,-0.824 0.028,-1.328 0.085,-1.514 0.057,-0.185 0.161,-0.333 0.312,-0.44 0.15,-0.109 0.341,-0.164 0.573,-0.164 0.265,0 0.502,0.073 0.711,0.218 0.21,0.146 0.353,0.326 0.431,0.541 0.077,0.215 0.115,0.741 0.115,1.579 V 5.856 H 1.44 L 1.44,0 Z"
         style="fill:#231f20;fill-opacity:1;fill-rule:nonzero;stroke:none"
         transform="matrix(1.3333333,0,0,-1.3333333,304.5228,58.0276)"
         clip-path="url(#clipPath50)"
         id="path110" />
      <path
         d="m 0,0 h -1.55 v 5.856 h 1.44 V 5.023 C 0.136,5.416 0.357,5.675 0.554,5.8 0.75,5.925 0.974,5.988 1.224,5.988 1.576,5.988 1.916,5.89 2.243,5.695 L 1.764,4.345 C 1.503,4.514 1.261,4.598 1.036,4.598 0.819,4.598 0.636,4.539 0.484,4.419 0.334,4.3 0.216,4.084 0.129,3.771 0.043,3.459 0,2.805 0,1.809 Z"
         style="fill:#231f20;fill-opacity:1;fill-rule:nonzero;stroke:none"
         transform="matrix(1.3333333,0,0,-1.3333333,310.55933,58.0276)"
         clip-path="url(#clipPath51)"
         id="path111" />
      <path
         d="m 0,0 c 0,0.515 0.127,1.013 0.381,1.494 0.253,0.482 0.612,0.849 1.077,1.103 0.465,0.254 0.984,0.381 1.558,0.381 0.885,0 1.612,-0.288 2.177,-0.863 0.567,-0.576 0.85,-1.303 0.85,-2.181 0,-0.886 -0.286,-1.62 -0.857,-2.203 -0.572,-0.582 -1.291,-0.874 -2.16,-0.874 -0.536,0 -1.048,0.121 -1.535,0.364 -0.487,0.243 -0.857,0.598 -1.11,1.067 C 0.127,-1.243 0,-0.672 0,0 m 1.588,-0.082 c 0,-0.582 0.138,-1.026 0.413,-1.335 0.276,-0.309 0.616,-0.463 1.02,-0.463 0.405,0 0.744,0.154 1.018,0.463 0.273,0.309 0.41,0.757 0.41,1.345 0,0.574 -0.137,1.015 -0.41,1.323 C 3.765,1.56 3.426,1.715 3.021,1.715 2.617,1.715 2.277,1.56 2.001,1.251 1.726,0.943 1.588,0.498 1.588,-0.082"
         style="fill:#231f20;fill-opacity:1;fill-rule:nonzero;stroke:none"
         transform="matrix(1.3333333,0,0,-1.3333333,313.96293,54.013867)"
         clip-path="url(#clipPath52)"
         id="path112" />
      <path
         d="m 0,0 h 1.444 v -0.86 c 0.188,0.294 0.442,0.533 0.761,0.716 0.32,0.184 0.675,0.276 1.065,0.276 0.679,0 1.256,-0.266 1.731,-0.8 0.474,-0.532 0.711,-1.275 0.711,-2.227 0,-0.978 -0.239,-1.737 -0.717,-2.279 -0.477,-0.543 -1.056,-0.814 -1.737,-0.814 -0.323,0 -0.616,0.065 -0.879,0.193 -0.263,0.129 -0.539,0.349 -0.83,0.662 v -2.95 H 0 Z m 1.532,-2.829 c 0,-0.657 0.131,-1.144 0.392,-1.458 0.261,-0.314 0.579,-0.471 0.954,-0.471 0.36,0 0.659,0.144 0.898,0.432 0.24,0.289 0.359,0.762 0.359,1.42 0,0.614 -0.123,1.07 -0.369,1.367 -0.246,0.298 -0.552,0.447 -0.915,0.447 -0.379,0 -0.694,-0.146 -0.944,-0.438 -0.25,-0.292 -0.375,-0.725 -0.375,-1.299"
         style="fill:#231f20;fill-opacity:1;fill-rule:nonzero;stroke:none"
         transform="matrix(1.3333333,0,0,-1.3333333,323.5788,50.220267)"
         clip-path="url(#clipPath53)"
         id="path113" />
      <path
         d="M 0,0 1.544,-0.259 C 1.346,-0.825 1.032,-1.256 0.603,-1.552 0.176,-1.848 -0.36,-1.996 -1.003,-1.996 c -1.019,0 -1.772,0.332 -2.261,0.998 -0.385,0.533 -0.579,1.206 -0.579,2.018 0,0.97 0.254,1.73 0.761,2.28 0.508,0.549 1.148,0.824 1.924,0.824 0.872,0 1.558,-0.288 2.062,-0.863 C 1.408,2.686 1.648,1.805 1.627,0.617 h -3.882 c 0.011,-0.459 0.136,-0.817 0.375,-1.072 0.239,-0.255 0.536,-0.383 0.894,-0.383 0.242,0 0.446,0.066 0.611,0.198 0.166,0.133 0.29,0.346 0.375,0.64 m 0.088,1.565 c -0.011,0.449 -0.126,0.79 -0.347,1.023 -0.221,0.234 -0.489,0.351 -0.806,0.351 -0.337,0 -0.617,-0.124 -0.837,-0.37 -0.221,-0.246 -0.33,-0.581 -0.326,-1.004 z"
         style="fill:#231f20;fill-opacity:1;fill-rule:nonzero;stroke:none"
         transform="matrix(1.3333333,0,0,-1.3333333,337.35493,55.542533)"
         clip-path="url(#clipPath54)"
         id="path114" />
      <path
         d="m 0,0 -1.406,0.254 c 0.158,0.566 0.429,0.985 0.815,1.257 0.387,0.272 0.96,0.408 1.721,0.408 0.691,0 1.205,-0.082 1.544,-0.246 C 3.012,1.51 3.25,1.302 3.388,1.05 3.525,0.799 3.595,0.336 3.595,-0.336 L 3.578,-2.145 c 0,-0.514 0.025,-0.894 0.074,-1.138 0.05,-0.245 0.143,-0.507 0.279,-0.786 H 2.398 C 2.358,-3.966 2.308,-3.814 2.249,-3.611 2.224,-3.52 2.205,-3.459 2.194,-3.429 1.93,-3.686 1.647,-3.879 1.345,-4.008 1.043,-4.137 0.722,-4.201 0.38,-4.201 c -0.603,0 -1.078,0.163 -1.425,0.491 -0.347,0.327 -0.521,0.74 -0.521,1.24 0,0.331 0.079,0.626 0.237,0.885 0.158,0.259 0.38,0.458 0.664,0.595 0.285,0.138 0.695,0.258 1.232,0.362 0.725,0.135 1.226,0.262 1.505,0.38 v 0.154 C 2.072,0.204 1.999,0.417 1.853,0.543 1.705,0.67 1.428,0.733 1.02,0.733 0.744,0.733 0.529,0.679 0.374,0.571 0.22,0.462 0.095,0.272 0,0 M 2.072,-1.257 C 1.874,-1.323 1.56,-1.402 1.13,-1.494 0.7,-1.586 0.419,-1.676 0.286,-1.764 0.084,-1.908 -0.017,-2.089 -0.017,-2.31 c 0,-0.217 0.081,-0.404 0.243,-0.563 0.162,-0.157 0.367,-0.236 0.617,-0.236 0.279,0 0.546,0.091 0.8,0.275 0.187,0.14 0.31,0.311 0.369,0.513 0.041,0.132 0.06,0.384 0.06,0.755 z"
         style="fill:#231f20;fill-opacity:1;fill-rule:nonzero;stroke:none"
         transform="matrix(1.3333333,0,0,-1.3333333,342.75067,52.6024)"
         clip-path="url(#clipPath55)"
         id="path115" />
      <path
         d="m 0,0 h -1.55 v 2.988 c 0,0.633 -0.033,1.041 -0.098,1.227 C -1.715,4.4 -1.822,4.545 -1.972,4.648 -2.12,4.751 -2.3,4.802 -2.509,4.802 -2.777,4.802 -3.018,4.729 -3.232,4.582 -3.444,4.435 -3.591,4.24 -3.67,3.997 -3.748,3.755 -3.788,3.306 -3.788,2.652 V 0 h -1.549 v 5.856 h 1.439 V 4.995 c 0.51,0.662 1.154,0.993 1.929,0.993 0.342,0 0.655,-0.062 0.938,-0.185 C -0.748,5.68 -0.534,5.523 -0.389,5.332 -0.244,5.14 -0.143,4.923 -0.086,4.681 -0.028,4.439 0,4.091 0,3.639 Z"
         style="fill:#231f20;fill-opacity:1;fill-rule:nonzero;stroke:none"
         transform="matrix(1.3333333,0,0,-1.3333333,356.68173,58.0276)"
         clip-path="url(#clipPath56)"
         id="path116" />
      <path
         d="m 0,0 h 1.632 v -4.378 c 0,-0.694 0.02,-1.144 0.06,-1.35 0.071,-0.331 0.237,-0.597 0.499,-0.797 0.263,-0.201 0.623,-0.301 1.079,-0.301 0.462,0 0.812,0.095 1.047,0.284 0.235,0.19 0.376,0.422 0.424,0.698 0.048,0.276 0.073,0.733 0.073,1.373 V 0 h 1.631 v -4.245 c 0,-0.97 -0.044,-1.656 -0.133,-2.057 C 6.225,-6.702 6.062,-7.041 5.825,-7.316 5.588,-7.592 5.271,-7.812 4.874,-7.975 4.477,-8.139 3.959,-8.22 3.319,-8.22 c -0.772,0 -1.357,0.089 -1.755,0.267 -0.4,0.178 -0.715,0.41 -0.947,0.695 C 0.386,-6.974 0.233,-6.675 0.16,-6.362 0.053,-5.899 0,-5.215 0,-4.312 Z"
         style="fill:#231f20;fill-opacity:1;fill-rule:nonzero;stroke:none"
         transform="matrix(1.3333333,0,0,-1.3333333,362.95907,47.2508)"
         clip-path="url(#clipPath57)"
         id="path117" />
      <path
         d="m 0,0 h -1.55 v 2.988 c 0,0.633 -0.033,1.041 -0.098,1.227 C -1.715,4.4 -1.822,4.545 -1.972,4.648 -2.12,4.751 -2.3,4.802 -2.509,4.802 -2.777,4.802 -3.018,4.729 -3.232,4.582 -3.444,4.435 -3.591,4.24 -3.67,3.997 -3.748,3.755 -3.788,3.306 -3.788,2.652 V 0 h -1.549 v 5.856 h 1.439 V 4.995 c 0.51,0.662 1.154,0.993 1.929,0.993 0.342,0 0.654,-0.062 0.938,-0.185 C -0.748,5.68 -0.534,5.523 -0.389,5.332 -0.244,5.14 -0.143,4.923 -0.086,4.681 -0.028,4.439 0,4.091 0,3.639 Z"
         style="fill:#231f20;fill-opacity:1;fill-rule:nonzero;stroke:none"
         transform="matrix(1.3333333,0,0,-1.3333333,380.93307,58.0276)"
         clip-path="url(#clipPath58)"
         id="path118" />
      <path
         d="m 287.271,124.609 h 1.549 v -1.433 h -1.549 z m 0,-2.227 h 1.549 v -5.856 h -1.549 z"
         style="fill:#231f20;fill-opacity:1;fill-rule:nonzero;stroke:none"
         transform="matrix(1.3333333,0,0,-1.3333333,0,213.396)"
         clip-path="url(#clipPath59)"
         id="path119" />
      <path
         d="m 0,0 c 0,0.515 0.127,1.013 0.381,1.494 0.253,0.482 0.612,0.849 1.077,1.103 0.465,0.254 0.984,0.381 1.558,0.381 0.885,0 1.612,-0.288 2.177,-0.863 0.567,-0.576 0.85,-1.303 0.85,-2.181 0,-0.886 -0.286,-1.62 -0.857,-2.203 -0.572,-0.582 -1.291,-0.874 -2.16,-0.874 -0.536,0 -1.047,0.121 -1.535,0.364 -0.487,0.243 -0.857,0.598 -1.11,1.067 C 0.127,-1.243 0,-0.672 0,0 m 1.588,-0.082 c 0,-0.582 0.138,-1.026 0.413,-1.335 0.276,-0.309 0.616,-0.463 1.021,-0.463 0.404,0 0.743,0.154 1.017,0.463 0.273,0.309 0.41,0.757 0.41,1.345 0,0.574 -0.137,1.015 -0.41,1.323 C 3.765,1.56 3.426,1.715 3.022,1.715 2.617,1.715 2.277,1.56 2.001,1.251 1.726,0.943 1.588,0.498 1.588,-0.082"
         style="fill:#231f20;fill-opacity:1;fill-rule:nonzero;stroke:none"
         transform="matrix(1.3333333,0,0,-1.3333333,386.73373,54.013867)"
         clip-path="url(#clipPath60)"
         id="path120" />
      <path
         d="m 0,0 h -1.55 v 2.988 c 0,0.633 -0.033,1.041 -0.098,1.227 C -1.715,4.4 -1.822,4.545 -1.972,4.648 -2.12,4.751 -2.3,4.802 -2.509,4.802 -2.777,4.802 -3.018,4.729 -3.231,4.582 -3.444,4.435 -3.591,4.24 -3.67,3.997 -3.748,3.755 -3.788,3.306 -3.788,2.652 V 0 h -1.549 v 5.856 h 1.439 V 4.995 c 0.51,0.662 1.154,0.993 1.929,0.993 0.342,0 0.655,-0.062 0.938,-0.185 C -0.748,5.68 -0.534,5.523 -0.389,5.332 -0.244,5.14 -0.143,4.923 -0.086,4.681 -0.028,4.439 0,4.091 0,3.639 Z"
         style="fill:#231f20;fill-opacity:1;fill-rule:nonzero;stroke:none"
         transform="matrix(1.3333333,0,0,-1.3333333,403.50987,58.0276)"
         clip-path="url(#clipPath61)"
         id="path121" />
      <path
         d="M 0,0 H 285.907"
         style="fill:none;stroke:#231f20;stroke-width:0.434;stroke-linecap:round;stroke-linejoin:miter;stroke-miterlimit:10;stroke-dasharray:none;stroke-opacity:1"
         transform="matrix(1.3333333,0,0,-1.3333333,22.039733,127.73533)"
         clip-path="url(#clipPath62)"
         id="path122" />
      <path
         d="M 0,0 H 3.206 L -2.696,13.199 H -5.713 L -11.597,0 h 3.131 l 1.169,2.828 h 6.128 z m -6.317,5.148 2.093,5.053 2.093,-5.053 z M 3.958,0 H 6.9 V 13.991 H 3.958 Z m 11.006,10.296 c -1.395,0 -2.458,-0.441 -3.187,-1.32 v 1.169 H 8.968 V -3.658 h 2.941 v 4.733 c 0.742,-0.818 1.76,-1.226 3.055,-1.226 0.943,0 1.801,0.217 2.574,0.651 0.773,0.433 1.379,1.043 1.82,1.829 0.439,0.785 0.66,1.7 0.66,2.743 0,1.044 -0.221,1.958 -0.66,2.744 -0.441,0.785 -1.047,1.395 -1.82,1.829 -0.773,0.434 -1.631,0.651 -2.574,0.651 M 14.455,2.263 c -0.754,0 -1.374,0.254 -1.857,0.763 -0.484,0.51 -0.726,1.191 -0.726,2.046 0,0.855 0.242,1.537 0.726,2.046 0.483,0.509 1.103,0.764 1.857,0.764 0.754,0 1.373,-0.255 1.857,-0.764 0.484,-0.509 0.726,-1.191 0.726,-2.046 0,-0.855 -0.242,-1.536 -0.726,-2.046 C 15.828,2.517 15.209,2.263 14.455,2.263 M 21.384,0 h 2.942 v 10.145 h -2.942 z m 1.471,11.559 c 0.541,0 0.981,0.16 1.32,0.481 0.34,0.32 0.509,0.726 0.509,1.216 0,0.452 -0.169,0.83 -0.509,1.131 -0.339,0.302 -0.779,0.453 -1.32,0.453 -0.54,0 -0.98,-0.157 -1.32,-0.472 -0.339,-0.314 -0.509,-0.704 -0.509,-1.169 0,-0.465 0.17,-0.855 0.509,-1.169 0.34,-0.314 0.78,-0.471 1.32,-0.471 m 9.73,-1.263 c -0.692,0 -1.327,-0.117 -1.905,-0.349 -0.578,-0.233 -1.062,-0.563 -1.451,-0.99 v 1.188 h -2.81 V 0 h 2.941 v 5.016 c 0,0.905 0.22,1.587 0.66,2.046 0.44,0.458 1.031,0.688 1.773,0.688 0.666,0 1.175,-0.198 1.527,-0.594 C 33.672,6.76 33.848,6.16 33.848,5.355 V 0 h 2.942 v 5.808 c 0,1.483 -0.387,2.602 -1.16,3.356 -0.773,0.754 -1.788,1.132 -3.045,1.132 M 48.762,5.035 c 0,1.056 -0.23,1.982 -0.689,2.781 -0.459,0.798 -1.09,1.411 -1.895,1.838 -0.804,0.428 -1.703,0.642 -2.696,0.642 -1.018,0 -1.939,-0.224 -2.763,-0.67 C 39.896,9.18 39.249,8.557 38.777,7.759 38.306,6.961 38.07,6.065 38.07,5.072 c 0,-1.006 0.239,-1.904 0.717,-2.696 0.477,-0.792 1.156,-1.411 2.036,-1.857 0.88,-0.447 1.892,-0.67 3.036,-0.67 1.835,0 3.231,0.547 4.186,1.641 L 46.48,3.187 C 46.128,2.847 45.748,2.599 45.339,2.442 44.931,2.285 44.462,2.206 43.934,2.206 c -0.767,0 -1.408,0.182 -1.923,0.547 -0.516,0.364 -0.842,0.861 -0.98,1.49 h 7.674 c 0.038,0.49 0.057,0.754 0.057,0.792 M 43.501,8.07 c 0.653,0 1.207,-0.191 1.659,-0.575 0.453,-0.383 0.729,-0.895 0.83,-1.536 h -4.997 c 0.1,0.653 0.377,1.169 0.829,1.546 0.453,0.377 1.012,0.565 1.679,0.565 M 59.66,-0.226 c 1.207,0 2.231,0.182 3.074,0.547 0.842,0.364 1.474,0.858 1.895,1.48 0.421,0.622 0.632,1.31 0.632,2.065 0,0.879 -0.23,1.577 -0.689,2.093 -0.459,0.515 -1.008,0.892 -1.65,1.131 -0.641,0.239 -1.464,0.478 -2.47,0.716 -0.968,0.214 -1.687,0.431 -2.159,0.651 -0.471,0.22 -0.707,0.556 -0.707,1.009 0,0.452 0.204,0.817 0.613,1.094 0.408,0.276 1.04,0.414 1.895,0.414 1.219,0 2.439,-0.346 3.658,-1.037 l 0.943,2.32 c -0.604,0.377 -1.308,0.666 -2.112,0.867 -0.805,0.201 -1.628,0.302 -2.47,0.302 -1.207,0 -2.228,-0.183 -3.064,-0.547 -0.836,-0.365 -1.462,-0.858 -1.877,-1.48 -0.414,-0.623 -0.622,-1.317 -0.622,-2.084 0,-0.88 0.229,-1.584 0.688,-2.112 0.459,-0.528 1.009,-0.911 1.65,-1.15 0.642,-0.239 1.465,-0.478 2.471,-0.717 0.653,-0.151 1.172,-0.289 1.555,-0.415 0.384,-0.125 0.698,-0.292 0.943,-0.499 0.245,-0.208 0.368,-0.469 0.368,-0.783 0,-0.427 -0.208,-0.77 -0.623,-1.027 -0.414,-0.258 -1.055,-0.387 -1.923,-0.387 -0.779,0 -1.559,0.126 -2.338,0.377 -0.78,0.251 -1.452,0.585 -2.018,1 L 54.286,1.301 c 0.591,-0.452 1.373,-0.82 2.348,-1.103 0.974,-0.283 1.983,-0.424 3.026,-0.424 m 13.022,10.522 c -1.395,0 -2.458,-0.441 -3.187,-1.32 v 1.169 H 66.686 V -3.658 h 2.941 v 4.733 c 0.742,-0.818 1.76,-1.226 3.055,-1.226 0.943,0 1.801,0.217 2.574,0.651 0.773,0.433 1.379,1.043 1.82,1.829 0.44,0.785 0.66,1.7 0.66,2.743 0,1.044 -0.22,1.958 -0.66,2.744 -0.441,0.785 -1.047,1.395 -1.82,1.829 -0.773,0.434 -1.631,0.651 -2.574,0.651 M 72.173,2.263 c -0.754,0 -1.374,0.254 -1.857,0.763 -0.484,0.51 -0.726,1.191 -0.726,2.046 0,0.855 0.242,1.537 0.726,2.046 0.483,0.509 1.103,0.764 1.857,0.764 0.754,0 1.373,-0.255 1.857,-0.764 0.484,-0.509 0.726,-1.191 0.726,-2.046 0,-0.855 -0.242,-1.536 -0.726,-2.046 C 73.546,2.517 72.927,2.263 72.173,2.263 m 11.006,8.033 c -0.817,0 -1.612,-0.107 -2.385,-0.321 C 80.021,9.761 79.358,9.459 78.805,9.07 L 79.86,7.015 c 0.365,0.289 0.808,0.518 1.33,0.688 0.521,0.169 1.053,0.254 1.593,0.254 0.779,0 1.364,-0.173 1.754,-0.518 0.389,-0.346 0.584,-0.839 0.584,-1.48 h -2.338 c -1.483,0 -2.58,-0.271 -3.29,-0.811 -0.711,-0.541 -1.066,-1.282 -1.066,-2.225 0,-0.591 0.151,-1.119 0.453,-1.584 0.302,-0.465 0.738,-0.83 1.31,-1.094 0.572,-0.264 1.248,-0.396 2.027,-0.396 1.509,0 2.54,0.472 3.093,1.414 V 0 h 2.753 v 5.789 c 0,1.508 -0.421,2.637 -1.263,3.385 -0.843,0.747 -2.05,1.122 -3.621,1.122 M 82.953,1.829 c -0.516,0 -0.921,0.11 -1.216,0.33 -0.296,0.22 -0.443,0.519 -0.443,0.896 0,0.792 0.603,1.188 1.81,1.188 h 2.017 V 3.206 C 84.958,2.753 84.681,2.41 84.292,2.178 83.902,1.945 83.456,1.829 82.953,1.829 M 95,-0.151 c 1.068,0 2.002,0.226 2.8,0.679 0.798,0.453 1.38,1.081 1.744,1.886 l -2.281,1.244 c -0.516,-0.93 -1.276,-1.395 -2.282,-1.395 -0.767,0 -1.402,0.251 -1.904,0.754 -0.503,0.503 -0.755,1.188 -0.755,2.055 0,0.868 0.252,1.553 0.755,2.056 0.502,0.502 1.137,0.754 1.904,0.754 0.993,0 1.754,-0.465 2.282,-1.395 l 2.281,1.225 C 99.18,8.542 98.598,9.18 97.8,9.626 c -0.798,0.446 -1.732,0.67 -2.8,0.67 -1.081,0 -2.052,-0.224 -2.913,-0.67 C 91.225,9.18 90.553,8.561 90.069,7.769 89.585,6.977 89.343,6.078 89.343,5.072 c 0,-1.006 0.242,-1.904 0.726,-2.696 0.484,-0.792 1.156,-1.411 2.018,-1.857 0.861,-0.447 1.832,-0.67 2.913,-0.67 m 15.569,5.186 c 0,1.056 -0.229,1.982 -0.688,2.781 -0.459,0.798 -1.091,1.411 -1.895,1.838 -0.805,0.428 -1.703,0.642 -2.696,0.642 -1.019,0 -1.94,-0.224 -2.763,-0.67 -0.823,-0.446 -1.471,-1.069 -1.942,-1.867 -0.471,-0.798 -0.707,-1.694 -0.707,-2.687 0,-1.006 0.239,-1.904 0.716,-2.696 0.478,-0.792 1.157,-1.411 2.037,-1.857 0.88,-0.447 1.892,-0.67 3.036,-0.67 1.835,0 3.23,0.547 4.186,1.641 l -1.565,1.697 c -0.352,-0.34 -0.733,-0.588 -1.141,-0.745 -0.409,-0.157 -0.877,-0.236 -1.405,-0.236 -0.767,0 -1.408,0.182 -1.923,0.547 -0.516,0.364 -0.843,0.861 -0.981,1.49 h 7.675 c 0.037,0.49 0.056,0.754 0.056,0.792 m -5.261,3.035 c 0.654,0 1.207,-0.191 1.66,-0.575 0.452,-0.383 0.729,-0.895 0.829,-1.536 h -4.996 c 0.1,0.653 0.377,1.169 0.829,1.546 0.453,0.377 1.012,0.565 1.678,0.565"
         style="fill:#231f20;fill-opacity:1;fill-rule:nonzero;stroke:none"
         transform="matrix(1.3333333,0,0,-1.3333333,37.1012,105.9296)"
         clip-path="url(#clipPath63)"
         id="path123" />
    </g>
  </g>
</svg>
